<?xml version="1.0" encoding="utf-8"?>
<!-- Generator: Adobe Illustrator 18.0.0, SVG Export Plug-In . SVG Version: 6.00 Build 0)  -->
<!DOCTYPE svg PUBLIC "-//W3C//DTD SVG 1.1//EN" "http://www.w3.org/Graphics/SVG/1.1/DTD/svg11.dtd">
<svg version="1.1" id="SvgjsSvg1023" xmlns:svgjs="http://svgjs.com/svgjs"
	 xmlns="http://www.w3.org/2000/svg" xmlns:xlink="http://www.w3.org/1999/xlink" x="0px" y="0px" viewBox="0 0 23.4 23.4"
	 enable-background="new 0 0 23.4 23.4" xml:space="preserve">
<path id="SvgjsPath1025" fill="#FFFFFF" fill-opacity="0" stroke="#338DE9" stroke-width="1.4" stroke-linecap="round" stroke-linejoin="round" stroke-miterlimit="50" stroke-dasharray="0" d="
	M3.7,9.7v-9"/>
<path id="SvgjsPath1026" fill="#FFFFFF" fill-opacity="0" stroke="#338DE9" stroke-width="1.4" stroke-linecap="round" stroke-linejoin="round" stroke-miterlimit="50" stroke-dasharray="0" d="
	M3.7,22.7v-3"/>
<path id="SvgjsPath1027" fill="#FFFFFF" fill-opacity="0" stroke="#338DE9" stroke-width="1.4" stroke-linecap="round" stroke-linejoin="round" stroke-miterlimit="50" stroke-dasharray="0" d="
	M11.7,1.7v-1"/>
<path id="SvgjsPath1028" fill="#FFFFFF" fill-opacity="0" stroke="#338DE9" stroke-width="1.4" stroke-linecap="round" stroke-linejoin="round" stroke-miterlimit="50" stroke-dasharray="0" d="
	M11.7,22.7v-11"/>
<path id="SvgjsPath1029" fill="#FFFFFF" fill-opacity="0" stroke="#338DE9" stroke-width="1.4" stroke-linecap="round" stroke-linejoin="round" stroke-miterlimit="50" stroke-dasharray="0" d="
	M19.7,9.7v-9"/>
<path id="SvgjsPath1030" fill="#FFFFFF" fill-opacity="0" stroke="#338DE9" stroke-width="1.4" stroke-linecap="round" stroke-linejoin="round" stroke-miterlimit="50" stroke-dasharray="0" d="
	M19.7,22.7v-3"/>
<path id="SvgjsPath1031" fill="#FFFFFF" d="M3.7,13.7c1.7,0,3,1.3,3,3s-1.3,3-3,3s-3-1.3-3-3S2,13.7,3.7,13.7z"/>
<path id="SvgjsPath1032" fill="#338DE9" fill-opacity="0.12" d="M3.7,13.7c1.7,0,3,1.3,3,3s-1.3,3-3,3s-3-1.3-3-3S2,13.7,3.7,13.7z"
	/>
<path id="SvgjsPath1033" fill="#FFFFFF" fill-opacity="0" stroke="#338DE9" stroke-width="1.4" stroke-linecap="round" stroke-linejoin="round" stroke-miterlimit="50" stroke-dasharray="0" d="
	M3.7,13.7c1.7,0,3,1.3,3,3s-1.3,3-3,3s-3-1.3-3-3S2,13.7,3.7,13.7z"/>
<path id="SvgjsPath1034" fill="#FFFFFF" d="M11.7,5.7c1.7,0,3,1.3,3,3s-1.3,3-3,3s-3-1.3-3-3S10,5.7,11.7,5.7z"/>
<path id="SvgjsPath1035" fill="#338DE9" fill-opacity="0.12" d="M11.7,5.7c1.7,0,3,1.3,3,3s-1.3,3-3,3s-3-1.3-3-3S10,5.7,11.7,5.7z"
	/>
<path id="SvgjsPath1036" fill="#FFFFFF" fill-opacity="0" stroke="#338DE9" stroke-width="1.4" stroke-linecap="round" stroke-linejoin="round" stroke-miterlimit="50" stroke-dasharray="0" d="
	M11.7,5.7c1.7,0,3,1.3,3,3s-1.3,3-3,3s-3-1.3-3-3S10,5.7,11.7,5.7z"/>
<path id="SvgjsPath1037" fill="#FFFFFF" d="M19.7,13.7c1.7,0,3,1.3,3,3s-1.3,3-3,3s-3-1.3-3-3S18,13.7,19.7,13.7z"/>
<path id="SvgjsPath1038" fill="#338DE9" fill-opacity="0.12" d="M19.7,13.7c1.7,0,3,1.3,3,3s-1.3,3-3,3s-3-1.3-3-3
	S18,13.7,19.7,13.7z"/>
<path id="SvgjsPath1039" fill="#FFFFFF" fill-opacity="0" stroke="#338DE9" stroke-width="1.4" stroke-linecap="round" stroke-linejoin="round" stroke-miterlimit="50" stroke-dasharray="0" d="
	M19.7,13.7c1.7,0,3,1.3,3,3s-1.3,3-3,3s-3-1.3-3-3S18,13.7,19.7,13.7z"/>
<path id="SvgjsPath1040" fill="#FFFFFF" fill-opacity="0" stroke="#338DE9" stroke-width="1.4" stroke-linecap="round" stroke-linejoin="round" stroke-miterlimit="50" stroke-dasharray="0" d="
	M3.7,9.7v-9"/>
<path id="SvgjsPath1041" fill="#FFFFFF" fill-opacity="0" stroke="#338DE9" stroke-width="1.4" stroke-linecap="round" stroke-linejoin="round" stroke-miterlimit="50" stroke-dasharray="0" d="
	M3.7,22.7v-3"/>
<path id="SvgjsPath1042" fill="#FFFFFF" fill-opacity="0" stroke="#338DE9" stroke-width="1.4" stroke-linecap="round" stroke-linejoin="round" stroke-miterlimit="50" stroke-dasharray="0" d="
	M11.7,1.7v-1"/>
<path id="SvgjsPath1043" fill="#FFFFFF" fill-opacity="0" stroke="#338DE9" stroke-width="1.4" stroke-linecap="round" stroke-linejoin="round" stroke-miterlimit="50" stroke-dasharray="0" d="
	M11.7,22.7v-11"/>
<path id="SvgjsPath1044" fill="#FFFFFF" fill-opacity="0" stroke="#338DE9" stroke-width="1.4" stroke-linecap="round" stroke-linejoin="round" stroke-miterlimit="50" stroke-dasharray="0" d="
	M19.7,9.7v-9"/>
<path id="SvgjsPath1045" fill="#FFFFFF" fill-opacity="0" stroke="#338DE9" stroke-width="1.4" stroke-linecap="round" stroke-linejoin="round" stroke-miterlimit="50" stroke-dasharray="0" d="
	M19.7,22.7v-3"/>
<path id="SvgjsPath1046" fill="#FFFFFF" d="M3.7,13.7c1.7,0,3,1.3,3,3s-1.3,3-3,3s-3-1.3-3-3S2,13.7,3.7,13.7z"/>
<path id="SvgjsPath1047" fill="#338DE9" fill-opacity="0.12" d="M3.7,13.7c1.7,0,3,1.3,3,3s-1.3,3-3,3s-3-1.3-3-3S2,13.7,3.7,13.7z"
	/>
<path id="SvgjsPath1048" fill="#FFFFFF" fill-opacity="0" stroke="#338DE9" stroke-width="1.4" stroke-linecap="round" stroke-linejoin="round" stroke-miterlimit="50" stroke-dasharray="0" d="
	M3.7,13.7c1.7,0,3,1.3,3,3s-1.3,3-3,3s-3-1.3-3-3S2,13.7,3.7,13.7z"/>
<path id="SvgjsPath1049" fill="#FFFFFF" d="M11.7,5.7c1.7,0,3,1.3,3,3s-1.3,3-3,3s-3-1.3-3-3S10,5.7,11.7,5.7z"/>
<path id="SvgjsPath1050" fill="#338DE9" fill-opacity="0.12" d="M11.7,5.7c1.7,0,3,1.3,3,3s-1.3,3-3,3s-3-1.3-3-3S10,5.7,11.7,5.7z"
	/>
<path id="SvgjsPath1051" fill="#FFFFFF" fill-opacity="0" stroke="#338DE9" stroke-width="1.4" stroke-linecap="round" stroke-linejoin="round" stroke-miterlimit="50" stroke-dasharray="0" d="
	M11.7,5.7c1.7,0,3,1.3,3,3s-1.3,3-3,3s-3-1.3-3-3S10,5.7,11.7,5.7z"/>
<path id="SvgjsPath1052" fill="#FFFFFF" d="M19.7,13.7c1.7,0,3,1.3,3,3s-1.3,3-3,3s-3-1.3-3-3S18,13.7,19.7,13.7z"/>
<path id="SvgjsPath1053" fill="#338DE9" fill-opacity="0.12" d="M19.7,13.7c1.7,0,3,1.3,3,3s-1.3,3-3,3s-3-1.3-3-3
	S18,13.7,19.7,13.7z"/>
<path id="SvgjsPath1054" fill="#FFFFFF" fill-opacity="0" stroke="#338DE9" stroke-width="1.4" stroke-linecap="round" stroke-linejoin="round" stroke-miterlimit="50" stroke-dasharray="0" d="
	M19.7,13.7c1.7,0,3,1.3,3,3s-1.3,3-3,3s-3-1.3-3-3S18,13.7,19.7,13.7z"/>
</svg>
