<?xml version="1.0" encoding="utf-8"?>
<!-- Generator: Adobe Illustrator 19.2.1, SVG Export Plug-In . SVG Version: 6.00 Build 0)  -->
<svg version="1.1" id="Layer_1" xmlns="http://www.w3.org/2000/svg" xmlns:xlink="http://www.w3.org/1999/xlink" x="0px" y="0px"
	 viewBox="0 0 23.4 18.4" enable-background="new 0 0 23.4 18.4" xml:space="preserve">
<title>icon</title>
<desc>Created with Sketch.</desc>
<g id="Lead-Retrieval">
	<g id="slide-4" transform="translate(-852.000000, -155.000000)">
		<g id="pict" transform="translate(565.000000, 82.000000)">
			<g id="_x32_" transform="translate(267.000000, 50.000000)">
				<g id="icon" transform="translate(21.000000, 24.000000)">
					<path fill="#338DE9" d="M0.8,16.2c-0.2,0-0.4-0.1-0.5-0.2c-0.3-0.3-0.3-0.7,0-1l4.9-4.8c0.3-0.3,0.7-0.3,1,0s0.3,0.7,0,1
						L1.3,16C1.1,16.2,0.9,16.2,0.8,16.2z"/>
					<path fill="#338DE9" d="M20.3,16.3c-0.2,0-0.4-0.1-0.5-0.2l-4.6-4.9c-0.3-0.3-0.2-0.7,0-1c0.3-0.3,0.7-0.2,1,0l4.6,4.9
						c0.3,0.3,0.2,0.7,0,1C20.6,16.2,20.4,16.3,20.3,16.3z"/>
					<path fill="#338DE9" d="M18.7,17.4h-16c-2,0-3.7-1.7-3.7-3.7v-6C-1,7.3-0.7,7-0.3,7s0.7,0.3,0.7,0.7v6c0,1.3,1,2.3,2.3,2.3h16
						c1.3,0,2.3-1,2.3-2.3v-6C21,7.3,21.3,7,21.7,7s0.7,0.3,0.7,0.7v6C22.4,15.7,20.7,17.4,18.7,17.4z"/>
				</g>
				<path id="path-1_2_" fill="#338DE9" fill-opacity="0.12" d="M42.7,26.7c0-1.7-1.3-3-3-3h-16c-1.7,0-3,1.3-3,3v1l9.2,5
					c1,0.5,2.5,0.5,3.5,0l9.2-5L42.7,26.7L42.7,26.7z"/>
				<path fill="#338DE9" d="M31.7,33.8c-0.8,0-1.5-0.2-2.1-0.5l-9.2-5c-0.2-0.1-0.4-0.4-0.4-0.6v-1c0-2,1.7-3.7,3.7-3.7h16
					c2,0,3.7,1.7,3.7,3.7v1c0,0.3-0.1,0.5-0.4,0.6l-9.2,5C33.2,33.7,32.5,33.8,31.7,33.8z M21.4,27.3l8.9,4.8c0.8,0.4,2.1,0.4,2.8,0
					l8.9-4.8v-0.6c0-1.3-1-2.3-2.3-2.3h-16c-1.3,0-2.3,1-2.3,2.3V27.3z M42.7,27.7L42.7,27.7L42.7,27.7z"/>
			</g>
		</g>
	</g>
</g>
</svg>
