<?xml version="1.0" encoding="utf-8"?>
<!-- Generator: Adobe Illustrator 19.2.1, SVG Export Plug-In . SVG Version: 6.00 Build 0)  -->
<svg version="1.1" id="SvgjsSvg1069" xmlns:svgjs="http://svgjs.com/svgjs"
	 xmlns="http://www.w3.org/2000/svg" xmlns:xlink="http://www.w3.org/1999/xlink" x="0px" y="0px" viewBox="0 0 920 438"
	 enable-background="new 0 0 920 438" xml:space="preserve">
<path id="SvgjsPath1096" fill="#FFFFFF" d="M770,378c49.7,0,90-40.3,90-90s-40.3-90-90-90s-90,40.3-90,90S720.3,378,770,378z"/>
<path id="SvgjsPath1091" fill="#FFFFFF" d="M770,408c66.3,0,120-53.7,120-120s-53.7-120-120-120s-120,53.7-120,120
	S703.7,408,770,408z"/>
<path id="SvgjsPath1086" fill="#FFFFFF" d="M770,438c82.8,0,150-67.2,150-150s-67.2-150-150-150s-150,67.2-150,150
	S687.2,438,770,438z"/>
<path id="SvgjsPath1081" fill="#FFFFFF" d="M770,378c49.7,0,90-40.3,90-90s-40.3-90-90-90s-90,40.3-90,90S720.3,378,770,378z"/>
<path id="SvgjsPath1076" fill="#FFFFFF" d="M770,408c66.3,0,120-53.7,120-120s-53.7-120-120-120s-120,53.7-120,120
	S703.7,408,770,408z"/>
<path id="SvgjsPath1071" fill="#FFFFFF" d="M770,438c82.8,0,150-67.2,150-150s-67.2-150-150-150s-150,67.2-150,150
	S687.2,438,770,438z"/>
<path id="SvgjsPath1072" fill="#DEE3EC" fill-opacity="0.5" d="M0,340V0h338v340H0z M169,321c82.8,0,150-67.2,150-150
	S251.8,21,169,21S19,88.2,19,171S86.2,321,169,321z"/>
<path id="SvgjsPath1077" fill="#DEE3EC" fill-opacity="0.5" d="M30,310V30h278v280H30z M169,291c66.3,0,120-53.7,120-120
	S235.3,51,169,51S49,104.7,49,171S102.7,291,169,291z"/>
<path id="SvgjsPath1082" fill="#DEE3EC" fill-opacity="0.5" d="M61,279V61h216v218H61z M169,261c49.7,0,90-40.3,90-90
	s-40.3-90-90-90s-90,40.3-90,90S119.3,261,169,261z"/>
<path id="SvgjsPath1087" fill="#DEE3EC" fill-opacity="0.5" d="M0,340V0h338v340H0z M169,321c82.8,0,150-67.2,150-150
	S251.8,21,169,21S19,88.2,19,171S86.2,321,169,321z"/>
<path id="SvgjsPath1092" fill="#DEE3EC" fill-opacity="0.5" d="M30,310V30h278v280H30z M169,291c66.3,0,120-53.7,120-120
	S235.3,51,169,51S49,104.7,49,171S102.7,291,169,291z"/>
<path id="SvgjsPath1097" fill="#DEE3EC" fill-opacity="0.5" d="M61,279V61h216v218H61z M169,261c49.7,0,90-40.3,90-90
	s-40.3-90-90-90s-90,40.3-90,90S119.3,261,169,261z"/>
</svg>
