<?xml version="1.0" encoding="utf-8"?>
<!-- Generator: Adobe Illustrator 18.0.0, SVG Export Plug-In . SVG Version: 6.00 Build 0)  -->
<!DOCTYPE svg PUBLIC "-//W3C//DTD SVG 1.1//EN" "http://www.w3.org/Graphics/SVG/1.1/DTD/svg11.dtd">
<svg version="1.1" id="Слой_1" xmlns="http://www.w3.org/2000/svg" xmlns:xlink="http://www.w3.org/1999/xlink" x="0px" y="0px"
	 viewBox="0 0 60 2" enable-background="new 0 0 60 2" xml:space="preserve">
<path id="SvgjsPath1007" fill="#A2ACBE" fill-opacity="0.5" d="M31,2c0.6,0,1-0.4,1-1s-0.4-1-1-1s-1,0.4-1,1S30.4,2,31,2z M56,2
	c0.6,0,1-0.4,1-1s-0.4-1-1-1s-1,0.4-1,1S55.4,2,56,2z M46,2c0.6,0,1-0.4,1-1s-0.4-1-1-1s-1,0.4-1,1S45.4,2,46,2z M41,2
	c0.6,0,1-0.4,1-1s-0.4-1-1-1s-1,0.4-1,1S40.4,2,41,2z M36,2c0.6,0,1-0.4,1-1s-0.4-1-1-1s-1,0.4-1,1S35.4,2,36,2z M51,2
	c0.6,0,1-0.4,1-1s-0.4-1-1-1s-1,0.4-1,1S50.4,2,51,2z M26,2c0.6,0,1-0.4,1-1s-0.4-1-1-1s-1,0.4-1,1S25.4,2,26,2z M21,2
	c0.6,0,1-0.4,1-1s-0.4-1-1-1s-1,0.4-1,1S20.4,2,21,2z M16,2c0.6,0,1-0.4,1-1s-0.4-1-1-1s-1,0.4-1,1S15.4,2,16,2z M11,2
	c0.6,0,1-0.4,1-1s-0.4-1-1-1s-1,0.4-1,1S10.4,2,11,2z M6,2c0.6,0,1-0.4,1-1S6.6,0,6,0S5,0.4,5,1S5.4,2,6,2z M1,2c0.6,0,1-0.4,1-1
	S1.6,0,1,0S0,0.4,0,1S0.4,2,1,2z"/>
</svg>
