<?xml version="1.0" encoding="utf-8"?>
<!-- Generator: Adobe Illustrator 18.0.0, SVG Export Plug-In . SVG Version: 6.00 Build 0)  -->
<!DOCTYPE svg PUBLIC "-//W3C//DTD SVG 1.1//EN" "http://www.w3.org/Graphics/SVG/1.1/DTD/svg11.dtd">
<svg version="1.1" id="Слой_1" xmlns="http://www.w3.org/2000/svg" xmlns:xlink="http://www.w3.org/1999/xlink" x="0px" y="0px"
	 viewBox="0.3 0.1 141.2 35.4" enable-background="new 0.3 0.1 141.2 35.4" xml:space="preserve">
<title>logo</title>
<desc>Created with Sketch.</desc>
<g id="Main">
	<g id="Menu" transform="translate(-62.000000, -17.000000)">
		<g id="navigation">
			<g id="top-nav" transform="translate(62.000000, 17.000000)">
				<g id="logo">
					<path id="Shape" fill="#666666" d="M0.3,22.4c0-4.5,4.2-6.5,12.8-6.6h0.5v-0.4c0-3-1.7-4.6-4.7-4.6c-2.9,0-4.6,1.6-5.5,3.4
						c0,0-2.4,0-2.4-1.9c0-1.9,2.8-4.7,8.2-4.7s8.3,2.9,8.3,7.8v12c0,0.2-0.7,0.5-1.4,0.5c-1.4,0-2.4-0.8-2.4-3.1
						c-1.5,2.1-4,3.4-6.9,3.4C2.7,27.9,0.3,25.7,0.3,22.4L0.3,22.4z M13.6,19.8v-1.5l-1.1,0c-5.6,0.2-8.4,1.3-8.4,3.9
						c0,1.8,1.3,2.9,3.6,2.9C11.2,25.1,13.6,22.8,13.6,19.8L13.6,19.8z"/>
					<path id="Shape_1_" fill="#666666" d="M41.9,17.8c0-5.9,4.1-10.4,9.8-10.4c5.5,0,9.2,4,9.2,9.8v0.3c0,0.8-0.3,1.2-1.2,1.2H45.6
						c0.3,3.6,2.9,6.1,6.5,6.1c3.3,0,5-1.5,6-3.2c0.1-0.1,2.1,0.3,2.1,2c0,1.7-2.9,4.4-8.1,4.4C45.9,28,41.9,23.9,41.9,17.8
						L41.9,17.8z M45.6,16.1H57c-0.2-3.4-2.2-5.6-5.4-5.6C48.5,10.5,46.1,12.8,45.6,16.1L45.6,16.1z"/>
					<path id="Shape_2_" fill="#666666" d="M66.5,10.9c1.3-2,3.4-3.5,6.4-3.5c5.1,0,7.4,3.5,7.4,8.4v9.9c0,1.4-0.7,1.9-1.7,1.9h-0.4
						c-1,0-1.7-0.5-1.7-1.9v-9.4c0-3.3-1.6-5.3-4.4-5.3c-2.5,0-4.4,1.4-5.4,3.4v11.3c0,1.4-0.7,1.9-1.7,1.9h-0.4
						c-1,0-1.7-0.5-1.7-1.9V8.2c0-0.1,0.6-0.5,1.4-0.5C65.2,7.7,66.4,8.3,66.5,10.9L66.5,10.9z"/>
					<path id="Shape_3_" fill="#666666" d="M81.9,17.7c0-6.2,3.8-10.3,9.1-10.3c3.1,0,5.4,1.4,6.5,3.2V0.6c0-0.1,0.7-0.5,1.4-0.5
						c1.2,0,2.5,0.6,2.5,3.5v22.2c0,1.4-0.7,1.9-1.7,1.9h-0.4c-1,0-1.7-0.5-1.7-1.9v-1.5C96,26.6,93.8,28,90.8,28
						C85.7,28,81.9,23.9,81.9,17.7L81.9,17.7z M97.5,19v-4.2c-1-2.5-2.9-4-5.9-4c-3.6,0-6,2.8-6,7c0,4.1,2.5,7,5.9,7
						C94.7,24.7,97.5,22.3,97.5,19L97.5,19z"/>
					<path id="Shape_4_" fill="#666666" d="M103,2.9c0-1.8,1.1-2.8,2.9-2.8c1.8,0,2.8,1,2.8,2.8s-1,2.7-2.8,2.7
						C104.1,5.6,103,4.6,103,2.9L103,2.9z"/>
					<path id="Shape_5_" fill="#666666" d="M103.9,25.7V9.7c0-1.4,0.7-1.9,1.8-1.9h0.4c1,0,1.7,0.5,1.7,1.9v16.1
						c0,1.4-0.7,1.9-1.7,1.9h-0.4C104.6,27.6,103.9,27.2,103.9,25.7L103.9,25.7z"/>
					<path id="Shape_6_" fill="#666666" d="M109.4,10.6v-0.3c0-1,0.5-1.4,1.7-1.4h2.2V7.4c0-4.9,2.3-7.2,6.1-7.2
						c2.9,0,4.3,1.3,4.3,2.6c0,1.1-0.9,1.8-1,1.8c-0.6-0.6-1.7-1.1-2.9-1.1c-1.9,0-2.8,1.2-2.8,4v1.4h3.2c1.3,0,1.7,0.5,1.7,1.5v0.3
						c0,1-0.5,1.5-1.7,1.5h-3.1v13.6c0,1.4-0.7,1.9-1.7,1.9h-0.4c-1,0-1.8-0.5-1.8-1.9V12.1h-2.2C109.9,12.1,109.4,11.6,109.4,10.6
						L109.4,10.6z M128,34.3l3.2-7.9c-0.9-0.1-1.3-0.3-1.7-1.1l-6.8-16.3c-0.1-0.2,0.8-1.2,2.1-1.2c1.1,0,1.9,0.5,2.5,2.3l5.2,13.5
						l4.6-13.4c0.6-1.8,1.4-2.4,2.5-2.4c1.1,0,2.2,0.9,2.1,1.1l-9,24.4c-0.6,1.8-1.5,2.2-2.4,2.2C128.9,35.4,127.9,34.5,128,34.3
						L128,34.3z"/>
					<path id="Shape_7_" fill="#399EE6" d="M29.8,11.1C29.9,11.1,29.9,11.1,29.8,11.1C29.9,11.2,29.8,11.2,29.8,11.1
						C29.8,11.2,29.8,11.1,29.8,11.1z M27.8,11.2H25v9.7c0,2.4,0.7,3.5,2.5,3.5c1.2,0,2.1-0.6,2.7-1.3c0.1-0.1,1.1,0.4,1.1,1.7
						c0,1.5-1.6,2.9-4.5,2.9c-4,0-5.8-2.2-5.8-6.3V11.3h-1.4c-1.2,0-1.7-0.5-1.7-1.5V9.5c0-1,0.5-1.5,1.7-1.5h8.2
						c-0.6,0.2-1,0.8-1,1.6C26.9,10.4,27.2,11,27.8,11.2z M29.6,8c0.1,0,0.2,0,0.4,0c-0.1,0-0.1,0-0.2,0C29.7,8.1,29.6,8,29.6,8z"/>
					<path id="Shape_8_" fill="#399EE6" d="M29.4,8h10.7c1.2,0,1.7,0.4,1.7,1.4v0.3c0,1-0.5,1.5-1.7,1.5h-4.3v9.7
						c0,2.4,0.7,3.5,2.5,3.5c1.2,0,2.1-0.6,2.7-1.3c0.1-0.1,1.1,0.4,1.1,1.7c0,1.5-1.6,2.9-4.5,2.9c-4,0-5.8-2.2-5.8-6.3V11.2h-2.3
						c0.6-0.3,0.9-0.8,0.9-1.6C30.5,8.8,30.1,8.2,29.4,8z"/>
					<path id="Shape_9_" fill="#399EE6" d="M31.3,4.6c0-1.8,1.1-2.7,2.9-2.7c1.8,0,2.8,1,2.8,2.7s-1,2.7-2.8,2.7
						C32.4,7.3,31.3,6.3,31.3,4.6L31.3,4.6z"/>
					<path id="Shape_10_" fill="#399EE6" d="M20,4.6c0-1.8,1.1-2.7,2.9-2.7c1.8,0,2.8,1,2.8,2.7s-1,2.7-2.8,2.7S20,6.3,20,4.6
						L20,4.6z"/>
					<path id="Shape_11_" fill="#3981E6" d="M27.6,9.6c0-0.7,0.4-1.1,1.1-1.1c0.7,0,1.1,0.4,1.1,1.1s-0.4,1.1-1.1,1.1
						C28,10.7,27.6,10.3,27.6,9.6L27.6,9.6z"/>
				</g>
			</g>
		</g>
	</g>
</g>
</svg>
