<?xml version="1.0" encoding="utf-8"?>
<!-- Generator: Adobe Illustrator 18.0.0, SVG Export Plug-In . SVG Version: 6.00 Build 0)  -->
<!DOCTYPE svg PUBLIC "-//W3C//DTD SVG 1.1//EN" "http://www.w3.org/Graphics/SVG/1.1/DTD/svg11.dtd">
<svg version="1.1" id="Слой_1" xmlns="http://www.w3.org/2000/svg" xmlns:xlink="http://www.w3.org/1999/xlink" x="0px" y="0px"
	 viewBox="0.3 0.3 23.4 21.4" enable-background="new 0.3 0.3 23.4 21.4" xml:space="preserve">
<title>icon</title>
<desc>Created with Sketch.</desc>
<g id="Main">
	<g id="Attendify-Main-Page" transform="translate(-722.000000, -2419.000000)">
		<g id="build-manage-measure" transform="translate(-50.000000, 2258.000000)">
			<g id="sub-menu" transform="translate(365.000000, 140.000000)">
				<g id="_x33_" transform="translate(354.000000, 0.000000)">
					<g id="icon" transform="translate(33.000000, 0.000000)">
						<g transform="translate(21.000000, 22.000000)">
							<g id="Path-2">
								<g>
									<path id="path-1" fill="#FFFFFF" d="M0.2,12.6l-0.1,5.3l0.9,1.5l3.4,0.4c0,0,15.3,0.2,15.3,0.2l2.5-1.1l-0.1-4.4L22,10.8
										l-4.5-2.4l-1.3,1.2l-1.7,0.4L13,8.8l-3.8,3L5,9L0.2,12.6z"/>
								</g>
								<g>
									<path id="path-1_1_" fill="#338DE9" fill-opacity="0.12" d="M0.2,12.6l-0.1,5.3l0.9,1.5l3.4,0.4c0,0,15.3,0.2,15.3,0.2
										l2.5-1.1l-0.1-4.4L22,10.8l-4.5-2.4l-1.3,1.2l-1.7,0.4L13,8.8l-3.8,3L5,9L0.2,12.6z"/>
								</g>
							</g>
							<path id="Stroke-733" fill="none" stroke="#338DE9" stroke-width="1.4" stroke-linecap="round" stroke-linejoin="round" d="
								M15,10v10"/>
							<path id="Stroke-735" fill="none" stroke="#338DE9" stroke-width="1.4" stroke-linecap="round" stroke-linejoin="round" d="
								M15,0v6"/>
							<path id="Stroke-887" fill="none" stroke="#338DE9" stroke-width="1.4" stroke-linecap="round" stroke-linejoin="round" d="
								M17,8.1l5,2.9"/>
							
								<polyline id="Stroke-888" fill="none" stroke="#338DE9" stroke-width="1.4" stroke-linecap="round" stroke-linejoin="round" points="
								0,13 5,9 9,12 13.1,8.6 							"/>
							<path id="Stroke-889" fill="none" stroke="#338DE9" stroke-width="1.4" stroke-linecap="round" stroke-linejoin="round" d="
								M22,18c0,1.1-0.9,2-2,2H2c-1.1,0-2-0.9-2-2V2c0-1.1,0.9-2,2-2h18c1.1,0,2,0.9,2,2V18z"/>
							<path id="Stroke-890" fill="none" stroke="#338DE9" stroke-width="1.4" stroke-linecap="round" stroke-linejoin="round" d="
								M13,8c0-1.1,0.9-2,2-2s2,0.9,2,2s-0.9,2-2,2S13,9.1,13,8L13,8z"/>
						</g>
					</g>
				</g>
			</g>
		</g>
	</g>
</g>
</svg>
