<?xml version="1.0" encoding="utf-8"?>
<!-- Generator: Adobe Illustrator 19.2.1, SVG Export Plug-In . SVG Version: 6.00 Build 0)  -->
<svg version="1.1" id="Layer_1" xmlns="http://www.w3.org/2000/svg" xmlns:xlink="http://www.w3.org/1999/xlink" x="0px" y="0px"
	 viewBox="0 0 18.2 23.4" enable-background="new 0 0 18.2 23.4" xml:space="preserve">
<title>icon</title>
<desc>Created with Sketch.</desc>
<g id="Lead-Retrieval">
	<g id="slide-4" transform="translate(-630.000000, -362.000000)">
		<g id="pict" transform="translate(565.000000, 82.000000)">
			<g id="_x36_" transform="translate(42.000000, 260.000000)">
				<g id="icon" transform="translate(24.000000, 21.000000)">
					<g id="Path-696">
						<g>
							<polygon id="path-1" fill="#FFFFFF" points="-0.3,5.6 16.4,5.6 16.4,2.5 13.9,0.9 11.4,0.7 2.7,0.8 0.7,1.7 -0.2,3.6 							
								"/>
						</g>
						<g>
							<polygon id="path-1_1_" fill="#338DE9" fill-opacity="0.12" points="-0.3,5.6 16.4,5.6 16.4,2.5 13.9,0.9 11.4,0.7 2.7,0.8 
								0.7,1.7 -0.2,3.6 							"/>
						</g>
					</g>
					<path fill="#338DE9" d="M14.5,0h-1.6v-0.3c0-0.4-0.3-0.7-0.7-0.7s-0.7,0.3-0.7,0.7V0H4.6v-0.3C4.6-0.7,4.3-1,3.9-1
						S3.2-0.7,3.2-0.3V0H1.7C0.2,0-1,1.2-1,2.7v17c0,1.5,1.2,2.7,2.7,2.7h12.8c1.5,0,2.7-1.2,2.7-2.7V2.8C17.2,1.3,15.9,0,14.5,0z
						 M1.7,1.4h1.5v0.3c0,0.4,0.3,0.7,0.7,0.7c0.4,0,0.7-0.3,0.7-0.7V1.4h6.9v0.3c0,0.4,0.3,0.7,0.7,0.7s0.7-0.3,0.7-0.7V1.4h1.6
						c0.7,0,1.3,0.6,1.3,1.3v2H0.4v-2C0.4,2,1,1.4,1.7,1.4z M14.5,21H1.7c-0.7,0-1.3-0.6-1.3-1.3V6.2h15.4v13.5
						C15.8,20.4,15.2,21,14.5,21z"/>
					<g>
						<path fill="#338DE9" d="M3.9,10.9h8.4c0.4,0,0.7-0.3,0.7-0.7s-0.3-0.7-0.7-0.7H3.9c-0.4,0-0.7,0.3-0.7,0.7S3.5,10.9,3.9,10.9z
							"/>
						<path fill="#338DE9" d="M12.3,12.6H3.9c-0.4,0-0.7,0.3-0.7,0.7S3.5,14,3.9,14h8.4c0.4,0,0.7-0.3,0.7-0.7S12.7,12.6,12.3,12.6z
							"/>
						<path fill="#338DE9" d="M6,15.8H3.9c-0.4,0-0.7,0.3-0.7,0.7s0.3,0.7,0.7,0.7H6c0.4,0,0.7-0.3,0.7-0.7S6.4,15.8,6,15.8z"/>
					</g>
				</g>
			</g>
		</g>
	</g>
</g>
</svg>
