<?xml version="1.0" encoding="utf-8"?>
<!-- Generator: Adobe Illustrator 18.0.0, SVG Export Plug-In . SVG Version: 6.00 Build 0)  -->
<!DOCTYPE svg PUBLIC "-//W3C//DTD SVG 1.1//EN" "http://www.w3.org/Graphics/SVG/1.1/DTD/svg11.dtd">
<svg version="1.1" id="Слой_1" xmlns="http://www.w3.org/2000/svg" xmlns:xlink="http://www.w3.org/1999/xlink" x="0px" y="0px"
	 viewBox="0.8 0.4 67.1 67.2" enable-background="new 0.8 0.4 67.1 67.2" xml:space="preserve">
<path d="M0.8,0.4h2.3v2.3H0.8V0.4L0.8,0.4z M3.1,0.4h2.3v2.3H3.1V0.4L3.1,0.4z M5.4,0.4h2.3v2.3H5.4V0.4L5.4,0.4z M7.7,0.4H10v2.3
	H7.7V0.4L7.7,0.4z M10,0.4h2.3v2.3H10V0.4L10,0.4z M12.3,0.4h2.3v2.3h-2.3V0.4L12.3,0.4z M14.6,0.4H17v2.3h-2.3V0.4L14.6,0.4z
	 M19.3,0.4h2.3v2.3h-2.3V0.4L19.3,0.4z M26.2,0.4h2.3v2.3h-2.3V0.4L26.2,0.4z M28.5,0.4h2.3v2.3h-2.3V0.4L28.5,0.4z M30.8,0.4h2.3
	v2.3h-2.3V0.4L30.8,0.4z M35.5,0.4h2.3v2.3h-2.3V0.4L35.5,0.4z M40.1,0.4h2.3v2.3h-2.3V0.4L40.1,0.4z M51.7,0.4H54v2.3h-2.3V0.4
	L51.7,0.4z M54,0.4h2.3v2.3H54V0.4L54,0.4z M56.3,0.4h2.3v2.3h-2.3V0.4L56.3,0.4z M58.6,0.4h2.3v2.3h-2.3V0.4L58.6,0.4z M60.9,0.4
	h2.3v2.3h-2.3V0.4L60.9,0.4z M63.3,0.4h2.3v2.3h-2.3V0.4L63.3,0.4z M65.6,0.4h2.3v2.3h-2.3V0.4L65.6,0.4z M0.8,2.7h2.3v2.3H0.8V2.7
	L0.8,2.7z M14.6,2.7H17v2.3h-2.3V2.7L14.6,2.7z M21.6,2.7h2.3v2.3h-2.3V2.7L21.6,2.7z M23.9,2.7h2.3v2.3h-2.3V2.7L23.9,2.7z
	 M30.8,2.7h2.3v2.3h-2.3V2.7L30.8,2.7z M44.7,2.7H47v2.3h-2.3V2.7L44.7,2.7z M51.7,2.7H54v2.3h-2.3V2.7L51.7,2.7z M65.6,2.7h2.3v2.3
	h-2.3V2.7L65.6,2.7z M0.8,5.1h2.3v2.3H0.8V5.1L0.8,5.1z M5.4,5.1h2.3v2.3H5.4V5.1L5.4,5.1z M7.7,5.1H10v2.3H7.7V5.1L7.7,5.1z
	 M10,5.1h2.3v2.3H10V5.1L10,5.1z M14.6,5.1H17v2.3h-2.3V5.1L14.6,5.1z M23.9,5.1h2.3v2.3h-2.3V5.1L23.9,5.1z M28.5,5.1h2.3v2.3h-2.3
	V5.1L28.5,5.1z M30.8,5.1h2.3v2.3h-2.3V5.1L30.8,5.1z M37.8,5.1h2.3v2.3h-2.3V5.1L37.8,5.1z M42.4,5.1h2.3v2.3h-2.3V5.1L42.4,5.1z
	 M44.7,5.1H47v2.3h-2.3V5.1L44.7,5.1z M51.7,5.1H54v2.3h-2.3V5.1L51.7,5.1z M56.3,5.1h2.3v2.3h-2.3V5.1L56.3,5.1z M58.6,5.1h2.3v2.3
	h-2.3V5.1L58.6,5.1z M60.9,5.1h2.3v2.3h-2.3V5.1L60.9,5.1z M65.6,5.1h2.3v2.3h-2.3V5.1L65.6,5.1z M0.8,7.4h2.3v2.3H0.8V7.4L0.8,7.4z
	 M5.4,7.4h2.3v2.3H5.4V7.4L5.4,7.4z M7.7,7.4H10v2.3H7.7V7.4L7.7,7.4z M10,7.4h2.3v2.3H10V7.4L10,7.4z M14.6,7.4H17v2.3h-2.3V7.4
	L14.6,7.4z M28.5,7.4h2.3v2.3h-2.3V7.4L28.5,7.4z M30.8,7.4h2.3v2.3h-2.3V7.4L30.8,7.4z M35.5,7.4h2.3v2.3h-2.3V7.4L35.5,7.4z
	 M37.8,7.4h2.3v2.3h-2.3V7.4L37.8,7.4z M40.1,7.4h2.3v2.3h-2.3V7.4L40.1,7.4z M47,7.4h2.3v2.3H47V7.4L47,7.4z M51.7,7.4H54v2.3h-2.3
	V7.4L51.7,7.4z M56.3,7.4h2.3v2.3h-2.3V7.4L56.3,7.4z M58.6,7.4h2.3v2.3h-2.3V7.4L58.6,7.4z M60.9,7.4h2.3v2.3h-2.3V7.4L60.9,7.4z
	 M65.6,7.4h2.3v2.3h-2.3V7.4L65.6,7.4z M0.8,9.7h2.3V12H0.8V9.7L0.8,9.7z M5.4,9.7h2.3V12H5.4V9.7L5.4,9.7z M7.7,9.7H10V12H7.7V9.7
	L7.7,9.7z M10,9.7h2.3V12H10V9.7L10,9.7z M14.6,9.7H17V12h-2.3V9.7L14.6,9.7z M21.6,9.7h2.3V12h-2.3V9.7L21.6,9.7z M26.2,9.7h2.3V12
	h-2.3V9.7L26.2,9.7z M35.5,9.7h2.3V12h-2.3V9.7L35.5,9.7z M42.4,9.7h2.3V12h-2.3V9.7L42.4,9.7z M44.7,9.7H47V12h-2.3V9.7L44.7,9.7z
	 M51.7,9.7H54V12h-2.3V9.7L51.7,9.7z M56.3,9.7h2.3V12h-2.3V9.7L56.3,9.7z M58.6,9.7h2.3V12h-2.3V9.7L58.6,9.7z M60.9,9.7h2.3V12
	h-2.3V9.7L60.9,9.7z M65.6,9.7h2.3V12h-2.3V9.7L65.6,9.7z M0.8,12h2.3v2.3H0.8V12L0.8,12z M14.6,12H17v2.3h-2.3V12L14.6,12z
	 M23.9,12h2.3v2.3h-2.3V12L23.9,12z M28.5,12h2.3v2.3h-2.3V12L28.5,12z M30.8,12h2.3v2.3h-2.3V12L30.8,12z M40.1,12h2.3v2.3h-2.3V12
	L40.1,12z M42.4,12h2.3v2.3h-2.3V12L42.4,12z M47,12h2.3v2.3H47V12L47,12z M51.7,12H54v2.3h-2.3V12L51.7,12z M65.6,12h2.3v2.3h-2.3
	V12L65.6,12z M0.8,14.3h2.3v2.3H0.8V14.3L0.8,14.3z M3.1,14.3h2.3v2.3H3.1V14.3L3.1,14.3z M5.4,14.3h2.3v2.3H5.4V14.3L5.4,14.3z
	 M7.7,14.3H10v2.3H7.7V14.3L7.7,14.3z M10,14.3h2.3v2.3H10V14.3L10,14.3z M12.3,14.3h2.3v2.3h-2.3V14.3L12.3,14.3z M14.6,14.3H17
	v2.3h-2.3V14.3L14.6,14.3z M19.3,14.3h2.3v2.3h-2.3V14.3L19.3,14.3z M23.9,14.3h2.3v2.3h-2.3V14.3L23.9,14.3z M28.5,14.3h2.3v2.3
	h-2.3V14.3L28.5,14.3z M33.2,14.3h2.3v2.3h-2.3V14.3L33.2,14.3z M37.8,14.3h2.3v2.3h-2.3V14.3L37.8,14.3z M42.4,14.3h2.3v2.3h-2.3
	V14.3L42.4,14.3z M47,14.3h2.3v2.3H47V14.3L47,14.3z M51.7,14.3H54v2.3h-2.3V14.3L51.7,14.3z M54,14.3h2.3v2.3H54V14.3L54,14.3z
	 M56.3,14.3h2.3v2.3h-2.3V14.3L56.3,14.3z M58.6,14.3h2.3v2.3h-2.3V14.3L58.6,14.3z M60.9,14.3h2.3v2.3h-2.3V14.3L60.9,14.3z
	 M63.3,14.3h2.3v2.3h-2.3V14.3L63.3,14.3z M65.6,14.3h2.3v2.3h-2.3V14.3L65.6,14.3z M19.3,16.6h2.3V19h-2.3V16.6L19.3,16.6z
	 M23.9,16.6h2.3V19h-2.3V16.6L23.9,16.6z M26.2,16.6h2.3V19h-2.3V16.6L26.2,16.6z M30.8,16.6h2.3V19h-2.3V16.6L30.8,16.6z
	 M33.2,16.6h2.3V19h-2.3V16.6L33.2,16.6z M44.7,16.6H47V19h-2.3V16.6L44.7,16.6z M0.8,19h2.3v2.3H0.8V19L0.8,19z M3.1,19h2.3v2.3
	H3.1V19L3.1,19z M7.7,19H10v2.3H7.7V19L7.7,19z M10,19h2.3v2.3H10V19L10,19z M14.6,19H17v2.3h-2.3V19L14.6,19z M21.6,19h2.3v2.3
	h-2.3V19L21.6,19z M23.9,19h2.3v2.3h-2.3V19L23.9,19z M26.2,19h2.3v2.3h-2.3V19L26.2,19z M28.5,19h2.3v2.3h-2.3V19L28.5,19z
	 M33.2,19h2.3v2.3h-2.3V19L33.2,19z M40.1,19h2.3v2.3h-2.3V19L40.1,19z M51.7,19H54v2.3h-2.3V19L51.7,19z M65.6,19h2.3v2.3h-2.3V19
	L65.6,19z M7.7,21.3H10v2.3H7.7V21.3L7.7,21.3z M10,21.3h2.3v2.3H10V21.3L10,21.3z M21.6,21.3h2.3v2.3h-2.3V21.3L21.6,21.3z
	 M28.5,21.3h2.3v2.3h-2.3V21.3L28.5,21.3z M35.5,21.3h2.3v2.3h-2.3V21.3L35.5,21.3z M40.1,21.3h2.3v2.3h-2.3V21.3L40.1,21.3z
	 M42.4,21.3h2.3v2.3h-2.3V21.3L42.4,21.3z M44.7,21.3H47v2.3h-2.3V21.3L44.7,21.3z M54,21.3h2.3v2.3H54V21.3L54,21.3z M56.3,21.3
	h2.3v2.3h-2.3V21.3L56.3,21.3z M58.6,21.3h2.3v2.3h-2.3V21.3L58.6,21.3z M3.1,23.6h2.3v2.3H3.1V23.6L3.1,23.6z M7.7,23.6H10v2.3H7.7
	V23.6L7.7,23.6z M14.6,23.6H17v2.3h-2.3V23.6L14.6,23.6z M19.3,23.6h2.3v2.3h-2.3V23.6L19.3,23.6z M23.9,23.6h2.3v2.3h-2.3V23.6
	L23.9,23.6z M26.2,23.6h2.3v2.3h-2.3V23.6L26.2,23.6z M35.5,23.6h2.3v2.3h-2.3V23.6L35.5,23.6z M47,23.6h2.3v2.3H47V23.6L47,23.6z
	 M51.7,23.6H54v2.3h-2.3V23.6L51.7,23.6z M54,23.6h2.3v2.3H54V23.6L54,23.6z M56.3,23.6h2.3v2.3h-2.3V23.6L56.3,23.6z M58.6,23.6
	h2.3v2.3h-2.3V23.6L58.6,23.6z M60.9,23.6h2.3v2.3h-2.3V23.6L60.9,23.6z M5.4,25.9h2.3v2.3H5.4V25.9L5.4,25.9z M12.3,25.9h2.3v2.3
	h-2.3V25.9L12.3,25.9z M19.3,25.9h2.3v2.3h-2.3V25.9L19.3,25.9z M21.6,25.9h2.3v2.3h-2.3V25.9L21.6,25.9z M23.9,25.9h2.3v2.3h-2.3
	V25.9L23.9,25.9z M26.2,25.9h2.3v2.3h-2.3V25.9L26.2,25.9z M28.5,25.9h2.3v2.3h-2.3V25.9L28.5,25.9z M33.2,25.9h2.3v2.3h-2.3V25.9
	L33.2,25.9z M40.1,25.9h2.3v2.3h-2.3V25.9L40.1,25.9z M44.7,25.9H47v2.3h-2.3V25.9L44.7,25.9z M49.4,25.9h2.3v2.3h-2.3V25.9
	L49.4,25.9z M56.3,25.9h2.3v2.3h-2.3V25.9L56.3,25.9z M58.6,25.9h2.3v2.3h-2.3V25.9L58.6,25.9z M63.3,25.9h2.3v2.3h-2.3V25.9
	L63.3,25.9z M0.8,28.2h2.3v2.3H0.8V28.2L0.8,28.2z M5.4,28.2h2.3v2.3H5.4V28.2L5.4,28.2z M7.7,28.2H10v2.3H7.7V28.2L7.7,28.2z
	 M14.6,28.2H17v2.3h-2.3V28.2L14.6,28.2z M17,28.2h2.3v2.3H17V28.2L17,28.2z M21.6,28.2h2.3v2.3h-2.3V28.2L21.6,28.2z M35.5,28.2
	h2.3v2.3h-2.3V28.2L35.5,28.2z M44.7,28.2H47v2.3h-2.3V28.2L44.7,28.2z M51.7,28.2H54v2.3h-2.3V28.2L51.7,28.2z M58.6,28.2h2.3v2.3
	h-2.3V28.2L58.6,28.2z M3.1,30.5h2.3v2.3H3.1V30.5L3.1,30.5z M10,30.5h2.3v2.3H10V30.5L10,30.5z M17,30.5h2.3v2.3H17V30.5L17,30.5z
	 M19.3,30.5h2.3v2.3h-2.3V30.5L19.3,30.5z M26.2,30.5h2.3v2.3h-2.3V30.5L26.2,30.5z M30.8,30.5h2.3v2.3h-2.3V30.5L30.8,30.5z
	 M35.5,30.5h2.3v2.3h-2.3V30.5L35.5,30.5z M37.8,30.5h2.3v2.3h-2.3V30.5L37.8,30.5z M40.1,30.5h2.3v2.3h-2.3V30.5L40.1,30.5z
	 M42.4,30.5h2.3v2.3h-2.3V30.5L42.4,30.5z M51.7,30.5H54v2.3h-2.3V30.5L51.7,30.5z M54,30.5h2.3v2.3H54V30.5L54,30.5z M56.3,30.5
	h2.3v2.3h-2.3V30.5L56.3,30.5z M58.6,30.5h2.3v2.3h-2.3V30.5L58.6,30.5z M60.9,30.5h2.3v2.3h-2.3V30.5L60.9,30.5z M65.6,30.5h2.3
	v2.3h-2.3V30.5L65.6,30.5z M0.8,32.8h2.3v2.3H0.8V32.8L0.8,32.8z M3.1,32.8h2.3v2.3H3.1V32.8L3.1,32.8z M5.4,32.8h2.3v2.3H5.4V32.8
	L5.4,32.8z M12.3,32.8h2.3v2.3h-2.3V32.8L12.3,32.8z M14.6,32.8H17v2.3h-2.3V32.8L14.6,32.8z M35.5,32.8h2.3v2.3h-2.3V32.8
	L35.5,32.8z M40.1,32.8h2.3v2.3h-2.3V32.8L40.1,32.8z M44.7,32.8H47v2.3h-2.3V32.8L44.7,32.8z M47,32.8h2.3v2.3H47V32.8L47,32.8z
	 M56.3,32.8h2.3v2.3h-2.3V32.8L56.3,32.8z M65.6,32.8h2.3v2.3h-2.3V32.8L65.6,32.8z M12.3,35.2h2.3v2.3h-2.3V35.2L12.3,35.2z
	 M26.2,35.2h2.3v2.3h-2.3V35.2L26.2,35.2z M28.5,35.2h2.3v2.3h-2.3V35.2L28.5,35.2z M37.8,35.2h2.3v2.3h-2.3V35.2L37.8,35.2z
	 M42.4,35.2h2.3v2.3h-2.3V35.2L42.4,35.2z M44.7,35.2H47v2.3h-2.3V35.2L44.7,35.2z M56.3,35.2h2.3v2.3h-2.3V35.2L56.3,35.2z
	 M58.6,35.2h2.3v2.3h-2.3V35.2L58.6,35.2z M60.9,35.2h2.3v2.3h-2.3V35.2L60.9,35.2z M65.6,35.2h2.3v2.3h-2.3V35.2L65.6,35.2z
	 M0.8,37.5h2.3v2.3H0.8V37.5L0.8,37.5z M3.1,37.5h2.3v2.3H3.1V37.5L3.1,37.5z M5.4,37.5h2.3v2.3H5.4V37.5L5.4,37.5z M7.7,37.5H10
	v2.3H7.7V37.5L7.7,37.5z M10,37.5h2.3v2.3H10V37.5L10,37.5z M14.6,37.5H17v2.3h-2.3V37.5L14.6,37.5z M17,37.5h2.3v2.3H17V37.5
	L17,37.5z M26.2,37.5h2.3v2.3h-2.3V37.5L26.2,37.5z M28.5,37.5h2.3v2.3h-2.3V37.5L28.5,37.5z M30.8,37.5h2.3v2.3h-2.3V37.5
	L30.8,37.5z M42.4,37.5h2.3v2.3h-2.3V37.5L42.4,37.5z M44.7,37.5H47v2.3h-2.3V37.5L44.7,37.5z M47,37.5h2.3v2.3H47V37.5L47,37.5z
	 M49.4,37.5h2.3v2.3h-2.3V37.5L49.4,37.5z M58.6,37.5h2.3v2.3h-2.3V37.5L58.6,37.5z M63.3,37.5h2.3v2.3h-2.3V37.5L63.3,37.5z
	 M65.6,37.5h2.3v2.3h-2.3V37.5L65.6,37.5z M0.8,39.8h2.3v2.3H0.8V39.8L0.8,39.8z M3.1,39.8h2.3v2.3H3.1V39.8L3.1,39.8z M5.4,39.8
	h2.3v2.3H5.4V39.8L5.4,39.8z M7.7,39.8H10v2.3H7.7V39.8L7.7,39.8z M10,39.8h2.3v2.3H10V39.8L10,39.8z M21.6,39.8h2.3v2.3h-2.3V39.8
	L21.6,39.8z M33.2,39.8h2.3v2.3h-2.3V39.8L33.2,39.8z M35.5,39.8h2.3v2.3h-2.3V39.8L35.5,39.8z M40.1,39.8h2.3v2.3h-2.3V39.8
	L40.1,39.8z M42.4,39.8h2.3v2.3h-2.3V39.8L42.4,39.8z M44.7,39.8H47v2.3h-2.3V39.8L44.7,39.8z M47,39.8h2.3v2.3H47V39.8L47,39.8z
	 M51.7,39.8H54v2.3h-2.3V39.8L51.7,39.8z M56.3,39.8h2.3v2.3h-2.3V39.8L56.3,39.8z M0.8,42.1h2.3v2.3H0.8V42.1L0.8,42.1z M3.1,42.1
	h2.3v2.3H3.1V42.1L3.1,42.1z M12.3,42.1h2.3v2.3h-2.3V42.1L12.3,42.1z M14.6,42.1H17v2.3h-2.3V42.1L14.6,42.1z M19.3,42.1h2.3v2.3
	h-2.3V42.1L19.3,42.1z M21.6,42.1h2.3v2.3h-2.3V42.1L21.6,42.1z M23.9,42.1h2.3v2.3h-2.3V42.1L23.9,42.1z M26.2,42.1h2.3v2.3h-2.3
	V42.1L26.2,42.1z M28.5,42.1h2.3v2.3h-2.3V42.1L28.5,42.1z M30.8,42.1h2.3v2.3h-2.3V42.1L30.8,42.1z M35.5,42.1h2.3v2.3h-2.3V42.1
	L35.5,42.1z M37.8,42.1h2.3v2.3h-2.3V42.1L37.8,42.1z M40.1,42.1h2.3v2.3h-2.3V42.1L40.1,42.1z M42.4,42.1h2.3v2.3h-2.3V42.1
	L42.4,42.1z M44.7,42.1H47v2.3h-2.3V42.1L44.7,42.1z M47,42.1h2.3v2.3H47V42.1L47,42.1z M49.4,42.1h2.3v2.3h-2.3V42.1L49.4,42.1z
	 M56.3,42.1h2.3v2.3h-2.3V42.1L56.3,42.1z M65.6,42.1h2.3v2.3h-2.3V42.1L65.6,42.1z M0.8,44.4h2.3v2.3H0.8V44.4L0.8,44.4z M3.1,44.4
	h2.3v2.3H3.1V44.4L3.1,44.4z M7.7,44.4H10v2.3H7.7V44.4L7.7,44.4z M10,44.4h2.3v2.3H10V44.4L10,44.4z M12.3,44.4h2.3v2.3h-2.3V44.4
	L12.3,44.4z M19.3,44.4h2.3v2.3h-2.3V44.4L19.3,44.4z M23.9,44.4h2.3v2.3h-2.3V44.4L23.9,44.4z M26.2,44.4h2.3v2.3h-2.3V44.4
	L26.2,44.4z M30.8,44.4h2.3v2.3h-2.3V44.4L30.8,44.4z M33.2,44.4h2.3v2.3h-2.3V44.4L33.2,44.4z M35.5,44.4h2.3v2.3h-2.3V44.4
	L35.5,44.4z M42.4,44.4h2.3v2.3h-2.3V44.4L42.4,44.4z M51.7,44.4H54v2.3h-2.3V44.4L51.7,44.4z M54,44.4h2.3v2.3H54V44.4L54,44.4z
	 M58.6,44.4h2.3v2.3h-2.3V44.4L58.6,44.4z M60.9,44.4h2.3v2.3h-2.3V44.4L60.9,44.4z M0.8,46.8h2.3v2.3H0.8V46.8L0.8,46.8z M3.1,46.8
	h2.3v2.3H3.1V46.8L3.1,46.8z M5.4,46.8h2.3v2.3H5.4V46.8L5.4,46.8z M10,46.8h2.3v2.3H10V46.8L10,46.8z M12.3,46.8h2.3v2.3h-2.3V46.8
	L12.3,46.8z M14.6,46.8H17v2.3h-2.3V46.8L14.6,46.8z M23.9,46.8h2.3v2.3h-2.3V46.8L23.9,46.8z M26.2,46.8h2.3v2.3h-2.3V46.8
	L26.2,46.8z M28.5,46.8h2.3v2.3h-2.3V46.8L28.5,46.8z M35.5,46.8h2.3v2.3h-2.3V46.8L35.5,46.8z M44.7,46.8H47v2.3h-2.3V46.8
	L44.7,46.8z M47,46.8h2.3v2.3H47V46.8L47,46.8z M49.4,46.8h2.3v2.3h-2.3V46.8L49.4,46.8z M51.7,46.8H54v2.3h-2.3V46.8L51.7,46.8z
	 M54,46.8h2.3v2.3H54V46.8L54,46.8z M56.3,46.8h2.3v2.3h-2.3V46.8L56.3,46.8z M58.6,46.8h2.3v2.3h-2.3V46.8L58.6,46.8z M60.9,46.8
	h2.3v2.3h-2.3V46.8L60.9,46.8z M65.6,46.8h2.3v2.3h-2.3V46.8L65.6,46.8z M19.3,49.1h2.3v2.3h-2.3V49.1L19.3,49.1z M21.6,49.1h2.3
	v2.3h-2.3V49.1L21.6,49.1z M23.9,49.1h2.3v2.3h-2.3V49.1L23.9,49.1z M26.2,49.1h2.3v2.3h-2.3V49.1L26.2,49.1z M33.2,49.1h2.3v2.3
	h-2.3V49.1L33.2,49.1z M35.5,49.1h2.3v2.3h-2.3V49.1L35.5,49.1z M47,49.1h2.3v2.3H47V49.1L47,49.1z M56.3,49.1h2.3v2.3h-2.3V49.1
	L56.3,49.1z M60.9,49.1h2.3v2.3h-2.3V49.1L60.9,49.1z M63.3,49.1h2.3v2.3h-2.3V49.1L63.3,49.1z M65.6,49.1h2.3v2.3h-2.3V49.1
	L65.6,49.1z M0.8,51.4h2.3v2.3H0.8V51.4L0.8,51.4z M3.1,51.4h2.3v2.3H3.1V51.4L3.1,51.4z M5.4,51.4h2.3v2.3H5.4V51.4L5.4,51.4z
	 M7.7,51.4H10v2.3H7.7V51.4L7.7,51.4z M10,51.4h2.3v2.3H10V51.4L10,51.4z M12.3,51.4h2.3v2.3h-2.3V51.4L12.3,51.4z M14.6,51.4H17
	v2.3h-2.3V51.4L14.6,51.4z M26.2,51.4h2.3v2.3h-2.3V51.4L26.2,51.4z M33.2,51.4h2.3v2.3h-2.3V51.4L33.2,51.4z M35.5,51.4h2.3v2.3
	h-2.3V51.4L35.5,51.4z M37.8,51.4h2.3v2.3h-2.3V51.4L37.8,51.4z M42.4,51.4h2.3v2.3h-2.3V51.4L42.4,51.4z M44.7,51.4H47v2.3h-2.3
	V51.4L44.7,51.4z M47,51.4h2.3v2.3H47V51.4L47,51.4z M51.7,51.4H54v2.3h-2.3V51.4L51.7,51.4z M56.3,51.4h2.3v2.3h-2.3V51.4
	L56.3,51.4z M60.9,51.4h2.3v2.3h-2.3V51.4L60.9,51.4z M0.8,53.7h2.3V56H0.8V53.7L0.8,53.7z M14.6,53.7H17V56h-2.3V53.7L14.6,53.7z
	 M21.6,53.7h2.3V56h-2.3V53.7L21.6,53.7z M26.2,53.7h2.3V56h-2.3V53.7L26.2,53.7z M40.1,53.7h2.3V56h-2.3V53.7L40.1,53.7z
	 M44.7,53.7H47V56h-2.3V53.7L44.7,53.7z M47,53.7h2.3V56H47V53.7L47,53.7z M56.3,53.7h2.3V56h-2.3V53.7L56.3,53.7z M58.6,53.7h2.3
	V56h-2.3V53.7L58.6,53.7z M65.6,53.7h2.3V56h-2.3V53.7L65.6,53.7z M0.8,56h2.3v2.3H0.8V56L0.8,56z M5.4,56h2.3v2.3H5.4V56L5.4,56z
	 M7.7,56H10v2.3H7.7V56L7.7,56z M10,56h2.3v2.3H10V56L10,56z M14.6,56H17v2.3h-2.3V56L14.6,56z M19.3,56h2.3v2.3h-2.3V56L19.3,56z
	 M21.6,56h2.3v2.3h-2.3V56L21.6,56z M26.2,56h2.3v2.3h-2.3V56L26.2,56z M28.5,56h2.3v2.3h-2.3V56L28.5,56z M30.8,56h2.3v2.3h-2.3V56
	L30.8,56z M35.5,56h2.3v2.3h-2.3V56L35.5,56z M44.7,56H47v2.3h-2.3V56L44.7,56z M47,56h2.3v2.3H47V56L47,56z M49.4,56h2.3v2.3h-2.3
	V56L49.4,56z M51.7,56H54v2.3h-2.3V56L51.7,56z M54,56h2.3v2.3H54V56L54,56z M56.3,56h2.3v2.3h-2.3V56L56.3,56z M58.6,56h2.3v2.3
	h-2.3V56L58.6,56z M60.9,56h2.3v2.3h-2.3V56L60.9,56z M63.3,56h2.3v2.3h-2.3V56L63.3,56z M65.6,56h2.3v2.3h-2.3V56L65.6,56z
	 M0.8,58.3h2.3v2.3H0.8V58.3L0.8,58.3z M5.4,58.3h2.3v2.3H5.4V58.3L5.4,58.3z M7.7,58.3H10v2.3H7.7V58.3L7.7,58.3z M10,58.3h2.3v2.3
	H10V58.3L10,58.3z M14.6,58.3H17v2.3h-2.3V58.3L14.6,58.3z M19.3,58.3h2.3v2.3h-2.3V58.3L19.3,58.3z M21.6,58.3h2.3v2.3h-2.3V58.3
	L21.6,58.3z M26.2,58.3h2.3v2.3h-2.3V58.3L26.2,58.3z M30.8,58.3h2.3v2.3h-2.3V58.3L30.8,58.3z M33.2,58.3h2.3v2.3h-2.3V58.3
	L33.2,58.3z M35.5,58.3h2.3v2.3h-2.3V58.3L35.5,58.3z M37.8,58.3h2.3v2.3h-2.3V58.3L37.8,58.3z M42.4,58.3h2.3v2.3h-2.3V58.3
	L42.4,58.3z M44.7,58.3H47v2.3h-2.3V58.3L44.7,58.3z M49.4,58.3h2.3v2.3h-2.3V58.3L49.4,58.3z M58.6,58.3h2.3v2.3h-2.3V58.3
	L58.6,58.3z M63.3,58.3h2.3v2.3h-2.3V58.3L63.3,58.3z M65.6,58.3h2.3v2.3h-2.3V58.3L65.6,58.3z M0.8,60.7h2.3V63H0.8V60.7L0.8,60.7z
	 M5.4,60.7h2.3V63H5.4V60.7L5.4,60.7z M7.7,60.7H10V63H7.7V60.7L7.7,60.7z M10,60.7h2.3V63H10V60.7L10,60.7z M14.6,60.7H17V63h-2.3
	V60.7L14.6,60.7z M21.6,60.7h2.3V63h-2.3V60.7L21.6,60.7z M23.9,60.7h2.3V63h-2.3V60.7L23.9,60.7z M30.8,60.7h2.3V63h-2.3V60.7
	L30.8,60.7z M35.5,60.7h2.3V63h-2.3V60.7L35.5,60.7z M47,60.7h2.3V63H47V60.7L47,60.7z M49.4,60.7h2.3V63h-2.3V60.7L49.4,60.7z
	 M51.7,60.7H54V63h-2.3V60.7L51.7,60.7z M54,60.7h2.3V63H54V60.7L54,60.7z M56.3,60.7h2.3V63h-2.3V60.7L56.3,60.7z M58.6,60.7h2.3
	V63h-2.3V60.7L58.6,60.7z M63.3,60.7h2.3V63h-2.3V60.7L63.3,60.7z M65.6,60.7h2.3V63h-2.3V60.7L65.6,60.7z M0.8,63h2.3v2.3H0.8V63
	L0.8,63z M14.6,63H17v2.3h-2.3V63L14.6,63z M19.3,63h2.3v2.3h-2.3V63L19.3,63z M26.2,63h2.3v2.3h-2.3V63L26.2,63z M35.5,63h2.3v2.3
	h-2.3V63L35.5,63z M37.8,63h2.3v2.3h-2.3V63L37.8,63z M54,63h2.3v2.3H54V63L54,63z M56.3,63h2.3v2.3h-2.3V63L56.3,63z M58.6,63h2.3
	v2.3h-2.3V63L58.6,63z M60.9,63h2.3v2.3h-2.3V63L60.9,63z M65.6,63h2.3v2.3h-2.3V63L65.6,63z M0.8,65.3h2.3v2.3H0.8V65.3L0.8,65.3z
	 M3.1,65.3h2.3v2.3H3.1V65.3L3.1,65.3z M5.4,65.3h2.3v2.3H5.4V65.3L5.4,65.3z M7.7,65.3H10v2.3H7.7V65.3L7.7,65.3z M10,65.3h2.3v2.3
	H10V65.3L10,65.3z M12.3,65.3h2.3v2.3h-2.3V65.3L12.3,65.3z M14.6,65.3H17v2.3h-2.3V65.3L14.6,65.3z M19.3,65.3h2.3v2.3h-2.3V65.3
	L19.3,65.3z M21.6,65.3h2.3v2.3h-2.3V65.3L21.6,65.3z M23.9,65.3h2.3v2.3h-2.3V65.3L23.9,65.3z M26.2,65.3h2.3v2.3h-2.3V65.3
	L26.2,65.3z M28.5,65.3h2.3v2.3h-2.3V65.3L28.5,65.3z M30.8,65.3h2.3v2.3h-2.3V65.3L30.8,65.3z M35.5,65.3h2.3v2.3h-2.3V65.3
	L35.5,65.3z M44.7,65.3H47v2.3h-2.3V65.3L44.7,65.3z M47,65.3h2.3v2.3H47V65.3L47,65.3z M54,65.3h2.3v2.3H54V65.3L54,65.3z
	 M56.3,65.3h2.3v2.3h-2.3V65.3L56.3,65.3z"/>
</svg>
