<?xml version="1.0" encoding="utf-8"?>
<!-- Generator: Adobe Illustrator 19.2.1, SVG Export Plug-In . SVG Version: 6.00 Build 0)  -->
<svg version="1.1"
	 id="svg3671" inkscape:version="0.48.5 r10040" sodipodi:docname="New document 4" xmlns:cc="http://creativecommons.org/ns#" xmlns:dc="http://purl.org/dc/elements/1.1/" xmlns:inkscape="http://www.inkscape.org/namespaces/inkscape" xmlns:rdf="http://www.w3.org/1999/02/22-rdf-syntax-ns#" xmlns:sodipodi="http://sodipodi.sourceforge.net/DTD/sodipodi-0.dtd" xmlns:svg="http://www.w3.org/2000/svg"
	 xmlns="http://www.w3.org/2000/svg" xmlns:xlink="http://www.w3.org/1999/xlink" x="0px" y="0px" viewBox="0 0 997.6 698.8"
	 enable-background="new 0 0 997.6 698.8" xml:space="preserve">
<g id="layer1" transform="translate(124.99999,-182.24065)" inkscape:groupmode="layer" inkscape:label="Layer 1">
	<g id="g3003" transform="matrix(14.230769,0,0,-14.230769,291.22346,259.00334)">
		<path id="path3005" inkscape:connector-curvature="0" fill="#00A1E0" d="M-0.1,0.1c2.3,2.4,5.4,3.8,8.9,3.8
			c4.6,0,8.7-2.6,10.8-6.4c1.9,0.8,3.9,1.3,6.1,1.3c8.4,0,15.2-6.8,15.2-15.2s-6.8-15.3-15.1-15.3c-1,0-2,0.1-3,0.3
			c-1.9-3.4-5.5-5.7-9.7-5.7c-1.7,0-3.4,0.4-4.8,1.1c-1.9-4.5-6.4-7.7-11.6-7.7c-5.4,0-10.1,3.4-11.8,8.3c-0.8-0.2-1.6-0.3-2.4-0.3
			c-6.5,0-11.7,5.3-11.7,11.8c0,4.4,2.4,8.2,5.9,10.3c-0.7,1.7-1.1,3.5-1.1,5.4c0,7.5,6.1,13.6,13.6,13.6C-6.6,5.5-2.6,3.4-0.1,0.1"
			/>
	</g>
	<g id="g3007" transform="matrix(14.230769,0,0,-14.230769,20.195613,545.3506)">
		<path id="path3009" inkscape:connector-curvature="0" fill="#FFFFFF" d="M-0.1,0.1c0-0.1,0-0.1,0-0.2C0-0.2,0.2-0.3,0.3-0.3
			C1-0.7,1.7-0.8,2.4-0.8c1.4,0,2.3,0.8,2.3,2l0,0c0,1.1-1,1.6-2,1.9H2.6c-0.7,0.3-1.3,0.5-1.3,1l0,0c0,0.4,0.4,0.7,0.9,0.7
			c0.6,0,1.4-0.2,1.8-0.5c0,0,0.1-0.1,0.2,0c0.1,0.1,0.3,0.8,0.4,0.8c0,0.1,0,0.1-0.1,0.2C3.9,5.6,3.2,5.9,2.4,5.9H2.3
			C1,5.9,0,5.1,0,3.9l0,0C0,2.7,1,2.3,2,2h0.2c0.6-0.2,1.2-0.4,1.2-0.9l0,0c0-0.4-0.4-0.8-1-0.8c-0.2,0-1,0-1.9,0.5
			c0,0.1-0.1,0.1-0.2,0.2c0,0-0.1,0.1-0.2-0.1L-0.1,0.1z"/>
	</g>
	<g id="g3011" transform="matrix(14.230769,0,0,-14.230769,320.19446,545.3506)">
		<path id="path3013" inkscape:connector-curvature="0" fill="#FFFFFF" d="M-0.1,0.1c0-0.1,0-0.1,0-0.2C0-0.2,0.2-0.3,0.3-0.3
			C1-0.7,1.7-0.8,2.4-0.8c1.4,0,2.3,0.8,2.3,2l0,0c0,1.1-1,1.6-2,1.9H2.6c-0.7,0.3-1.3,0.5-1.3,1l0,0c0,0.4,0.4,0.7,0.9,0.7
			c0.6,0,1.4-0.2,1.8-0.5c0,0,0.1-0.1,0.2,0c0.1,0.1,0.3,0.8,0.4,0.8c0,0.1,0,0.1-0.1,0.2C3.9,5.6,3.2,5.9,2.4,5.9H2.3
			C1,5.9,0,5.1,0,3.9l0,0C0,2.7,1,2.3,2,2h0.2c0.6-0.2,1.2-0.4,1.2-0.9l0,0c0-0.4-0.4-0.8-1-0.8c-0.2,0-1,0-1.9,0.5
			c0,0.1-0.1,0.1-0.2,0.2c0,0-0.1,0.1-0.2-0.1L-0.1,0.1z"/>
	</g>
	<g id="g3015" transform="matrix(14.230769,0,0,-14.230769,524.9952,510.98046)">
		<path id="path3017" inkscape:connector-curvature="0" fill="#FFFFFF" d="M-0.1,0.1c0-0.7-0.1-1.2-0.4-1.6s-0.7-0.6-1.2-0.6
			s-0.9,0.2-1.2,0.6c-0.2,0.4-0.3,0.9-0.3,1.6s0.1,1.2,0.4,1.6c0.2,0.4,0.6,0.6,1.1,0.6s0.9-0.2,1.2-0.6C-0.3,1.4-0.1,0.8-0.1,0.1
			 M1.1,1.4C0.9,1.8,0.8,2.2,0.5,2.5C0.3,2.8,0,3-0.4,3.2c-0.4,0.2-0.8,0.3-1.3,0.3S-2.6,3.4-3,3.2s-0.7-0.4-0.9-0.7
			c-0.2-0.3-0.4-0.6-0.5-1C-4.6,1-4.6,0.6-4.6,0.1s0.1-0.9,0.2-1.3c0.1-0.4,0.3-0.7,0.5-1C-3.7-2.5-3.3-2.7-3-2.9
			c0.4-0.2,0.8-0.3,1.3-0.3s0.9,0.1,1.3,0.3s0.7,0.4,0.9,0.7c0.3,0.3,0.4,0.6,0.6,1c0.1,0.4,0.1,0.9,0.1,1.3S1.2,1,1.1,1.4"/>
	</g>
	<g id="g3019" transform="matrix(14.230769,0,0,-14.230769,682.5683,539.71093)">
		<path id="path3021" inkscape:connector-curvature="0" fill="#FFFFFF" d="M-0.1,0.1c0,0.1-0.2,0.1-0.2,0.1C-0.5,0.1-0.6,0.1-0.8,0
			C-1,0-1.2,0-1.5,0c-0.6,0-1,0.2-1.4,0.5c-0.3,0.3-0.5,0.9-0.5,1.6s0.2,1.2,0.5,1.6s0.7,0.6,1.3,0.6c0.5,0,0.9,0,1.3-0.2
			c0,0,0.1,0,0.1,0.1C-0.1,4.5,0,4.7,0.1,5.1c0,0.1,0,0.1-0.1,0.1c-0.1,0.1-0.5,0.2-0.8,0.2s-0.6,0.1-0.9,0.1c-0.5,0-1-0.1-1.3-0.3
			C-3.4,5-3.7,4.8-4,4.5s-0.5-0.6-0.6-1c-0.1-0.4-0.2-0.9-0.2-1.3c0-1,0.3-1.8,0.8-2.4s1.3-0.9,2.4-0.9C-1-1.1-0.4-1,0.1-0.8
			c0,0,0.1,0,0,0.1L-0.1,0.1z"/>
	</g>
	<g id="g3023" transform="matrix(14.230769,0,0,-14.230769,712.4969,501.47858)">
		<path id="path3025" inkscape:connector-curvature="0" fill="#FFFFFF" d="M-0.1,0.1c0,0.4,0.1,0.7,0.3,1c0.2,0.4,0.6,0.6,1.2,0.6
			s0.8-0.2,1.1-0.6c0.2-0.3,0.2-0.6,0.3-1H-0.1z M3.9,1C3.8,1.4,3.5,1.8,3.4,2C3.1,2.2,2.9,2.4,2.6,2.5C2.3,2.7,1.9,2.8,1.5,2.8
			c-0.5,0-1-0.1-1.3-0.3c-0.5-0.2-0.8-0.4-1-0.7c-0.3-0.3-0.5-0.7-0.6-1.1c-0.1-0.4-0.2-0.8-0.2-1.3s0.1-0.9,0.2-1.3
			c0.2-0.4,0.3-0.7,0.6-1s0.6-0.5,1-0.7s0.9-0.2,1.5-0.2c1.2,0,1.8,0.3,2,0.4c0,0,0.1,0.1,0,0.2L3.5-2.5c0,0.1-0.2,0.1-0.2,0.1
			C3.1-2.5,2.7-2.7,1.7-2.7c-0.6,0-1.1,0.2-1.4,0.5s-0.4,0.7-0.5,1.3h4.1c0,0,0.1,0,0.1,0.1S4.2,0.1,3.9,1"/>
	</g>
	<g id="g3027" transform="matrix(14.230769,0,0,-14.230769,248.76169,501.47858)">
		<path id="path3029" inkscape:connector-curvature="0" fill="#FFFFFF" d="M-0.1,0.1c0,0.4,0.1,0.7,0.3,1c0.2,0.4,0.6,0.6,1.2,0.6
			s0.8-0.2,1.1-0.6c0.2-0.3,0.2-0.6,0.3-1H-0.1z M3.9,1C3.8,1.4,3.5,1.8,3.4,2C3.1,2.2,2.9,2.4,2.6,2.5C2.3,2.7,1.9,2.8,1.5,2.8
			c-0.5,0-1-0.1-1.3-0.3c-0.5-0.2-0.8-0.4-1-0.7c-0.3-0.3-0.5-0.7-0.6-1.1c-0.1-0.4-0.2-0.8-0.2-1.3s0.1-0.9,0.2-1.3
			c0.2-0.4,0.3-0.7,0.6-1s0.6-0.5,1-0.7s0.9-0.2,1.5-0.2c1.2,0,1.8,0.3,2,0.4c0,0,0.1,0.1,0,0.2L3.5-2.5c0,0.1-0.2,0.1-0.2,0.1
			C3.1-2.5,2.7-2.7,1.7-2.7c-0.6,0-1.1,0.2-1.4,0.5s-0.4,0.7-0.5,1.3h4.1c0,0,0.1,0,0.1,0.1S4.2,0.1,3.9,1"/>
	</g>
	<g id="g3031" transform="matrix(14.230769,0,0,-14.230769,123.60065,539.3936)">
		<path id="path3033" inkscape:connector-curvature="0" fill="#FFFFFF" d="M-0.1,0.1c-0.2,0.1-0.2,0.2-0.2,0.2
			c-0.1,0.1-0.1,0.3-0.1,0.5c0,0.4,0.1,0.6,0.4,0.8c0,0,0.3,0.3,1.2,0.3c0.6,0,1.1-0.1,1.1-0.1v-1.9l0,0c0,0-0.5-0.1-1.1-0.1
			C0.2-0.2-0.1,0.1-0.1,0.1 M1.5,3C1.3,3,1.1,3,0.9,3c-0.3,0-0.7,0-1-0.1s-0.6-0.2-0.8-0.4c-0.4-0.2-0.5-0.4-0.7-0.7
			s-0.2-0.6-0.2-0.9c0-0.4,0.1-0.7,0.2-0.9c0.1-0.3,0.3-0.5,0.5-0.7S-0.6-1-0.3-1.1s0.7-0.1,1.1-0.1s0.8,0,1.2,0.1s0.9,0.2,1.1,0.2
			c0.1,0,0.3,0.1,0.3,0.1c0.1,0,0.1,0.1,0.1,0.1V3c0,0.8-0.2,1.4-0.6,1.8c-0.5,0.4-1.2,0.6-2,0.6c-0.3,0-0.8,0-1.1-0.1
			c0,0-0.9-0.2-1.3-0.5c0,0-0.1-0.1,0-0.2l0.3-0.8c0-0.1,0.1-0.1,0.1-0.1s0,0,0.1,0c0.8,0.4,1.8,0.4,1.8,0.4c0.4,0,0.8-0.1,1-0.3
			s0.3-0.4,0.3-1v0.1C1.8,3,1.5,3,1.5,3"/>
	</g>
	<g id="g3035" transform="matrix(14.230769,0,0,-14.230769,613.6685,468.87159)">
		<path id="path3037" inkscape:connector-curvature="0" fill="#FFFFFF" d="M-0.1,0.1c0,0.1,0,0.1-0.1,0.1s-0.4,0.1-0.7,0.1
			c-0.5,0-0.8-0.1-1-0.2c-0.3,0-0.6-0.2-0.7-0.4v0.5c0,0.1,0,0.1-0.1,0.1h-1c-0.1,0-0.1-0.1-0.1-0.1v-6.1C-3.8-6-3.7-6-3.7-6h1.1
			v0.1v3c0,0.4,0,0.8,0.1,1.1c0.1,0.3,0.3,0.5,0.4,0.6C-1.9-1-1.8-0.9-1.6-0.9c0.2,0.1,0.4,0.1,0.5,0.1c0.2,0,0.4-0.1,0.4-0.1
			c0.1,0,0.1,0,0.1,0.1C-0.4-0.5-0.2,0-0.1,0.1"/>
	</g>
	<g id="g3039" transform="matrix(14.230769,0,0,-14.230769,470.8741,428.84334)">
		<path id="path3041" inkscape:connector-curvature="0" fill="#FFFFFF" d="M-0.1,0.1c-0.1,0-0.2,0.1-0.4,0.1s-0.3,0-0.6,0
			c-0.7,0-1.3-0.2-1.7-0.6s-0.7-1-0.8-1.8v-0.3h-0.9c0,0-0.1,0-0.1-0.1l-0.2-0.8c0-0.1,0-0.1,0.1-0.1h0.9l-0.9-5.1
			c-0.1-0.4-0.2-0.7-0.2-1c-0.2-0.3-0.3-0.5-0.4-0.6s-0.2-0.2-0.4-0.3c-0.1,0-0.3-0.1-0.5-0.1c-0.1,0-0.2,0-0.3,0
			c-0.1,0-0.1,0-0.2,0.1c0,0-0.1,0-0.1-0.1s-0.3-0.7-0.3-0.8s0-0.1,0.1-0.2c0.1,0,0.2-0.1,0.4-0.1c0.2-0.1,0.4-0.1,0.6-0.1
			c0.4,0,0.7,0.1,1,0.2c0.3,0.1,0.5,0.3,0.8,0.5c0.2,0.3,0.4,0.5,0.5,0.9s0.3,0.8,0.4,1.4l0.9,5.2h1.3c0,0,0.1,0,0.1,0.1l0.2,0.8
			c0,0.1,0,0.1-0.1,0.1h-1.3c0,0,0.1,0.5,0.2,0.9c-0.1,0.3,0,0.5,0.1,0.6C-1.8-1-1.7-0.9-1.5-0.9c0.1,0,0.2,0.1,0.4,0.1
			c0.1,0,0.2,0,0.3,0c0.2-0.1,0.2-0.1,0.3-0.1s0.2,0,0.2,0.1L-0.1,0C0,0.1-0.1,0.1-0.1,0.1"/>
	</g>
	<g id="g3043" transform="matrix(14.230769,0,0,-14.230769,212.19431,554.07548)">
		<path id="path3045" inkscape:connector-curvature="0" fill="#FFFFFF" d="M-0.1,0.1C-0.1,0-0.1,0-0.2,0h-1.1
			c-0.1,0-0.1,0.1-0.1,0.1v8.7c0,0.1,0,0.1,0.1,0.1h1.1c0,0,0.1,0,0.1-0.1V0.1z"/>
	</g>
</g>
</svg>
