<?xml version="1.0" encoding="UTF-8"?><!DOCTYPE svg PUBLIC "-//W3C//DTD SVG 1.1//EN" "http://www.w3.org/Graphics/SVG/1.1/DTD/svg11.dtd"><svg xmlns="http://www.w3.org/2000/svg"><symbol id="icon-android" viewBox="0 0 27.5 32">
    <path d="M22.7 11.2v12.3c0 1.2-1 2.1-2.1 2.1h-1.5V30c0 1.1-.9 2-2 2s-2-.9-2-2v-4.4h-2.7V30c0 1.1-.9 2-2 2s-2-.9-2-2v-4.4H6.9c-1.2 0-2.1-.9-2.1-2.1V11.2h17.9zm-4.6-8.3c2.8 1.4 4.6 4.1 4.6 7.1h-18c0-3.1 1.8-5.7 4.6-7.1L7.9.4C7.8.3 7.9.1 8 0c.2 0 .3 0 .4.2l1.4 2.5c1.2-.5 2.5-.8 3.9-.8s2.7.3 3.9.8L19 .2c.1-.2.3-.2.4-.2.1.1.2.2.1.4l-1.4 2.5zm9.4 18.6c0 1.1-.9 2-2 2s-2-.9-2-2v-8.3c0-1.1.9-2 2-2s2 .9 2 2v8.3zM17.8 6.8c.4 0 .8-.3.8-.7 0-.4-.3-.8-.8-.8-.4 0-.8.3-.8.8.1.4.4.7.8.7zm-8.2 0c.4 0 .8-.3.8-.7 0-.4-.3-.8-.8-.8-.4 0-.8.3-.8.8.1.4.4.7.8.7zM0 13.2v8.3c0 1.1.9 2 2 2s2-.9 2-2v-8.3c0-1.1-.9-2-2-2s-2 .9-2 2z"/>
</symbol><symbol id="icon-apple" viewBox="0 0 25.7 32">
    <path d="M19.1 0c-1.6.1-3.5 1.1-4.7 2.4-1 1.2-1.9 3.1-1.7 4.9 1.8.1 3.6-.9 4.7-2.3 1.2-1.2 1.9-3.1 1.7-5zm6.6 23.5c0 .1-.7 2.3-2.2 4.6-1.3 1.9-2.7 3.9-4.8 3.9-2.1 0-2.8-1.3-5.2-1.3-2.4 0-3.2 1.2-5.2 1.3-2.1.1-3.7-2.1-5-4.1-2.7-4-4.8-11.2-2-16.1 1.4-2.4 3.8-4 6.5-4 2 0 4 1.4 5.2 1.4 1.2 0 3.6-1.7 6-1.5 1 0 3.9.4 5.8 3.2-.1.1-3.4 2-3.4 6.1.1 4.8 4.2 6.4 4.3 6.5z"/>
</symbol><symbol id="icon-arrow" viewBox="0 0 13.9 11.4">
    <path stroke-width="1.6" stroke-linecap="round" stroke-linejoin="round" stroke-miterlimit="50" stroke-dasharray="0" d="M7.8 10.6L13 5.7 7.8.8"/>
    <path stroke-width="1.6" stroke-linecap="round" stroke-linejoin="round" stroke-miterlimit="50" stroke-dasharray="0" d="M.8 5.6h11.6"/>
    <path stroke-width="1.6" stroke-linecap="round" stroke-linejoin="round" stroke-miterlimit="50" stroke-dasharray="0" d="M7.8 10.6L13 5.7 7.8.8"/>
    <path stroke-width="1.6" stroke-linecap="round" stroke-linejoin="round" stroke-miterlimit="50" stroke-dasharray="0" d="M.8 5.6h11.6"/>
</symbol><symbol id="icon-build" viewBox="0 0 37.1 37.9">
    <path stroke-width="1.6" stroke-linecap="round" stroke-linejoin="round" stroke-miterlimit="50" stroke-dasharray="0" d="M7.3 36.5H.8V21.8h6.5"/>
    <path stroke-width="1.6" stroke-linecap="round" stroke-linejoin="round" stroke-miterlimit="50" stroke-dasharray="0" d="M29.8 36.5h6.5V21.8h-6.5"/>
    <path stroke-width="1.6" stroke-linecap="round" stroke-linejoin="round" stroke-miterlimit="50" stroke-dasharray="0" d="M7.8 1.6c0-.4.4-.8.8-.8H30c.4 0 .8.4.8.8v35.2h-23V1.6z"/>
    <path stroke-width="1.6" stroke-linecap="round" stroke-linejoin="round" stroke-miterlimit="50" stroke-dasharray="0" d="M13.8 6.8h1.6"/>
    <path stroke-width="1.6" stroke-linecap="round" stroke-linejoin="round" stroke-miterlimit="50" stroke-dasharray="0" d="M21.8 6.8h1.6"/>
    <path stroke-width="1.6" stroke-linecap="round" stroke-linejoin="round" stroke-miterlimit="50" stroke-dasharray="0" d="M13.8 13.8h1.6"/>
    <path stroke-width="1.6" stroke-linecap="round" stroke-linejoin="round" stroke-miterlimit="50" stroke-dasharray="0" d="M21.8 13.8h1.6"/>
    <path stroke-width="1.6" stroke-linecap="round" stroke-linejoin="round" stroke-miterlimit="50" stroke-dasharray="0" d="M13.8 19.8h1.6"/>
    <path stroke-width="1.6" stroke-linecap="round" stroke-linejoin="round" stroke-miterlimit="50" stroke-dasharray="0" d="M21.8 19.8h1.6"/>
    <path stroke-width="1.6" stroke-linecap="round" stroke-linejoin="round" stroke-miterlimit="50" stroke-dasharray="0" d="M13.8 26.8h1.6"/>
    <path stroke-width="1.6" stroke-linecap="round" stroke-linejoin="round" stroke-miterlimit="50" stroke-dasharray="0" d="M21.8 26.8h1.6"/>
    <path stroke-width="1.6" stroke-linecap="round" stroke-linejoin="round" stroke-miterlimit="50" stroke-dasharray="0" d="M18.8 37.1v-3.3"/>
</symbol><symbol id="icon-code" viewBox="0 0 63.7 63.5">
    <path d="M20 3.1c0-.6.5-1.1 1.1-1.1h1.8c.6 0 1.1.5 1.1 1.1v7.8c0 .6-.5 1.1-1.1 1.1h-1.8c-.6 0-1.1-.5-1.1-1.1V3.1z"/>
    <path d="M35 3.1c0-.6.5-1.1 1.1-1.1h1.8c.6 0 1.1.5 1.1 1.1v7.8c0 .6-.5 1.1-1.1 1.1h-1.8c-.6 0-1.1-.5-1.1-1.1V3.1z"/>
    <path d="M30 10h4.4v12H30V10z"/>
    <path d="M34 26h4.4v12H34V26z"/>
    <path d="M49 36h4.4v12H49V36z"/>
    <path d="M55 44h4.4v12H55V44z"/>
    <path d="M39 21h4.4v9.8H39V21z"/>
    <path d="M48 21h4.4v9.8H48V21z"/>
    <path d="M44 31h4.4v9.8H44V31z"/>
    <path d="M25 26h4.4v9.8H25V26z"/>
    <path d="M31 53h4.4v9.8H31V53z"/>
    <path d="M45 48h4.4v15.3H45V48z"/>
    <path d="M31 40h4.4v9.8H31V40z"/>
    <path d="M21 45h4.4v18.5H21V45z"/>
    <path d="M4 26h4.4v8.7H4V26z"/>
    <path d="M15 31h4.4v9.8H15V31z"/>
    <path d="M30.1 12c-.6 0-1.1-.5-1.1-1.1V9.1c0-.6.5-1.1 1.1-1.1h7.8c.6 0 1.1.5 1.1 1.1v1.8c0 .6-.5 1.1-1.1 1.1h-7.8z"/>
    <path d="M35.1 30c-.6 0-1.1-.5-1.1-1.1v-1.8c0-.6.5-1.1 1.1-1.1h7.8c.6 0 1.1.5 1.1 1.1v1.8c0 .6-.5 1.1-1.1 1.1h-7.8z"/>
    <path d="M50.6 30.7v-4.4h13.1v4.4H50.6z"/>
    <path d="M50.1 48c-.6 0-1.1-.5-1.1-1.1v-1.8c0-.6.5-1.1 1.1-1.1h7.8c.6 0 1.1.5 1.1 1.1v1.8c0 .6-.5 1.1-1.1 1.1h-7.8z"/>
    <path d="M44.1 40c-.6 0-1.1-.5-1.1-1.1v-1.8c0-.6.5-1.1 1.1-1.1h7.8c.6 0 1.1.5 1.1 1.1v1.8c0 .6-.5 1.1-1.1 1.1h-7.8z"/>
    <path d="M11.1 26c-.6 0-1.1-.5-1.1-1.1v-1.8c0-.6.5-1.1 1.1-1.1h7.8c.6 0 1.1.5 1.1 1.1v1.8c0 .6-.5 1.1-1.1 1.1h-7.8z"/>
    <path d="M19.3 30.1v-4.4h9.8v4.4h-9.8z"/>
    <path d="M15.3 40.1v-4.4h9.8v4.4h-9.8z"/>
    <path d="M25.3 45.1v-4.4h9.8v4.4h-9.8z"/>
    <path d="M20.3 54.1v-4.4h9.8v4.4h-9.8z"/>
    <path d="M39.3 63.1v-4.4h9.8v4.4h-9.8z"/>
    <path d="M22.8 17.6v-5.5h9.8v5.5h-9.8z"/>
    <path d="M30.1 22c-.6 0-1.1-.5-1.1-1.1v-1.8c0-.6.5-1.1 1.1-1.1h7.8c.6 0 1.1.5 1.1 1.1v1.8c0 .6-.5 1.1-1.1 1.1h-7.8z"/>
    <path d="M4.5 34.8v-4.4h15.3v4.4H4.5z"/>
    <path d="M20 21.4V17h4.4v4.4H20z"/>
    <path d="M0 26.4V22h4.4v4.4H0z"/>
    <path d="M0 39.4V35h4.4v4.4H0z"/>
    <path d="M40 48.4V44h4.4v4.4H40z"/>
    <path d="M0 0h15.3v15.3H0V0zm4.4 10.9H11V4.4H4.4v6.5z"/>
    <path d="M0 50.2C0 49 1 48 2.2 48h10.6c1.2 0 2.2 1 2.2 2.2v10.6c0 1.2-1 2.2-2.2 2.2H2.2C1 63 0 62 0 60.8V50.2zm4.4 8.7H11v-6.5H4.4v6.5z"/>
    <path d="M48 2.2C48 1 49 0 50.2 0h10.6C62 0 63 1 63 2.2v10.6c0 1.2-1 2.2-2.2 2.2H50.2C49 15 48 14 48 12.8V2.2zm4.4 8.7H59V4.4h-6.6v6.5z"/>
    <path d="M20 3.1c0-.6.5-1.1 1.1-1.1h1.8c.6 0 1.1.5 1.1 1.1v7.8c0 .6-.5 1.1-1.1 1.1h-1.8c-.6 0-1.1-.5-1.1-1.1V3.1z"/>
    <path d="M35 3.1c0-.6.5-1.1 1.1-1.1h1.8c.6 0 1.1.5 1.1 1.1v7.8c0 .6-.5 1.1-1.1 1.1h-1.8c-.6 0-1.1-.5-1.1-1.1V3.1z"/>
    <path d="M30 10h4.4v12H30V10z"/>
    <path d="M34 26h4.4v12H34V26z"/>
    <path d="M49 36h4.4v12H49V36z"/>
    <path d="M55 44h4.4v12H55V44z"/>
    <path d="M39 21h4.4v9.8H39V21z"/>
    <path d="M48 21h4.4v9.8H48V21z"/>
    <path d="M44 31h4.4v9.8H44V31z"/>
    <path d="M25 26h4.4v9.8H25V26z"/>
    <path d="M31 53h4.4v9.8H31V53z"/>
    <path d="M45 48h4.4v15.3H45V48z"/>
    <path d="M31 40h4.4v9.8H31V40z"/>
    <path d="M21 45h4.4v18.5H21V45z"/>
    <path d="M4 26h4.4v8.7H4V26z"/>
    <path d="M15 31h4.4v9.8H15V31z"/>
    <path d="M30.1 12c-.6 0-1.1-.5-1.1-1.1V9.1c0-.6.5-1.1 1.1-1.1h7.8c.6 0 1.1.5 1.1 1.1v1.8c0 .6-.5 1.1-1.1 1.1h-7.8z"/>
    <path d="M35.1 30c-.6 0-1.1-.5-1.1-1.1v-1.8c0-.6.5-1.1 1.1-1.1h7.8c.6 0 1.1.5 1.1 1.1v1.8c0 .6-.5 1.1-1.1 1.1h-7.8z"/>
    <path d="M50.6 30.7v-4.4h13.1v4.4H50.6z"/>
    <path d="M50.1 48c-.6 0-1.1-.5-1.1-1.1v-1.8c0-.6.5-1.1 1.1-1.1h7.8c.6 0 1.1.5 1.1 1.1v1.8c0 .6-.5 1.1-1.1 1.1h-7.8z"/>
    <path d="M44.1 40c-.6 0-1.1-.5-1.1-1.1v-1.8c0-.6.5-1.1 1.1-1.1h7.8c.6 0 1.1.5 1.1 1.1v1.8c0 .6-.5 1.1-1.1 1.1h-7.8z"/>
    <path d="M11.1 26c-.6 0-1.1-.5-1.1-1.1v-1.8c0-.6.5-1.1 1.1-1.1h7.8c.6 0 1.1.5 1.1 1.1v1.8c0 .6-.5 1.1-1.1 1.1h-7.8z"/>
    <path d="M19.3 30.1v-4.4h9.8v4.4h-9.8z"/>
    <path d="M15.3 40.1v-4.4h9.8v4.4h-9.8z"/>
    <path d="M25.3 45.1v-4.4h9.8v4.4h-9.8z"/>
    <path d="M20.3 54.1v-4.4h9.8v4.4h-9.8z"/>
    <path d="M39.3 63.1v-4.4h9.8v4.4h-9.8z"/>
    <path d="M22.8 17.6v-5.5h9.8v5.5h-9.8z"/>
    <path d="M30.1 22c-.6 0-1.1-.5-1.1-1.1v-1.8c0-.6.5-1.1 1.1-1.1h7.8c.6 0 1.1.5 1.1 1.1v1.8c0 .6-.5 1.1-1.1 1.1h-7.8z"/>
    <path d="M4.5 34.8v-4.4h15.3v4.4H4.5z"/>
    <path d="M20 21.4V17h4.4v4.4H20z"/>
    <path d="M0 26.4V22h4.4v4.4H0z"/>
    <path d="M0 39.4V35h4.4v4.4H0z"/>
    <path d="M40 48.4V44h4.4v4.4H40z"/>
    <path d="M0 0h15.3v15.3H0V0zm4.4 10.9H11V4.4H4.4v6.5z"/>
    <path d="M0 50.2C0 49 1 48 2.2 48h10.6c1.2 0 2.2 1 2.2 2.2v10.6c0 1.2-1 2.2-2.2 2.2H2.2C1 63 0 62 0 60.8V50.2zm4.4 8.7H11v-6.5H4.4v6.5z"/>
    <path d="M48 2.2C48 1 49 0 50.2 0h10.6C62 0 63 1 63 2.2v10.6c0 1.2-1 2.2-2.2 2.2H50.2C49 15 48 14 48 12.8V2.2zm4.4 8.7H59V4.4h-6.6v6.5z"/>
</symbol><symbol id="icon-cogwheel" viewBox="0 0 23.4 23.4">
    <path d="M20.7 9.7h-1.3c-.2-.7-.4-1.4-.8-2.1l.9-.9c.8-.8.8-2 0-2.8-.8-.8-2.1-.8-2.8 0l-.9.9c-.6-.4-1.3-.7-2.1-.8V2.7c0-1.1-.9-2-2-2s-2 .9-2 2V4c-.7.2-1.4.4-2.1.8l-.9-.9c-.8-.8-2-.8-2.8 0-.8.8-.8 2.1 0 2.8l.9.9c-.4.7-.6 1.4-.8 2.1H2.7c-1.1 0-2 .9-2 2s.9 2 2 2H4c.2.7.5 1.4.8 2.1l-.9.9c-.8.8-.8 2 0 2.8.8.8 2.1.8 2.8 0l.9-.9c.7.4 1.4.6 2.1.8v1.3c0 1.1.9 2 2 2s2-.9 2-2v-1.3c.7-.2 1.4-.5 2.1-.8l.9.9c.8.8 2 .8 2.8 0 .8-.8.8-2.1 0-2.8l-.9-.9c.4-.6.7-1.3.8-2.1h1.3c1.1 0 2-.9 2-2s-.9-2-2-2z"/>
    <path stroke-width="1.4" stroke-linecap="round" stroke-linejoin="round" stroke-miterlimit="50" stroke-dasharray="0" d="M20.7 9.7h-1.3c-.2-.7-.4-1.4-.8-2.1l.9-.9c.8-.8.8-2 0-2.8-.8-.8-2.1-.8-2.8 0l-.9.9c-.6-.4-1.3-.7-2.1-.8V2.7c0-1.1-.9-2-2-2s-2 .9-2 2V4c-.7.2-1.4.4-2.1.8l-.9-.9c-.8-.8-2-.8-2.8 0-.8.8-.8 2.1 0 2.8l.9.9c-.4.7-.6 1.4-.8 2.1H2.7c-1.1 0-2 .9-2 2s.9 2 2 2H4c.2.7.5 1.4.8 2.1l-.9.9c-.8.8-.8 2 0 2.8.8.8 2.1.8 2.8 0l.9-.9c.7.4 1.4.6 2.1.8v1.3c0 1.1.9 2 2 2s2-.9 2-2v-1.3c.7-.2 1.4-.5 2.1-.8l.9.9c.8.8 2 .8 2.8 0 .8-.8.8-2.1 0-2.8l-.9-.9c.4-.6.7-1.3.8-2.1h1.3c1.1 0 2-.9 2-2s-.9-2-2-2z"/>
    <path d="M11.7 8.7c1.7 0 3 1.3 3 3s-1.3 3-3 3-3-1.3-3-3 1.3-3 3-3z"/>
    <path fill-opacity=".12" d="M11.7 8.7c1.7 0 3 1.3 3 3s-1.3 3-3 3-3-1.3-3-3 1.3-3 3-3z"/>
    <path stroke-width="1.4" stroke-linecap="round" stroke-linejoin="round" stroke-miterlimit="50" stroke-dasharray="0" d="M11.7 8.7c1.7 0 3 1.3 3 3s-1.3 3-3 3-3-1.3-3-3 1.3-3 3-3z"/>
</symbol><symbol id="icon-cross" viewBox="0 0 17.4 17.4">
    <path stroke-width="1.4" stroke-linecap="round" stroke-linejoin="round" stroke-miterlimit="50" stroke-dasharray="0" d="M16.7 8.7H.7"/>
    <path stroke-width="1.4" stroke-linecap="round" stroke-linejoin="round" stroke-miterlimit="50" stroke-dasharray="0" d="M8.7 16.7V.7"/>
</symbol><symbol id="icon-dollar" viewBox="0 0 12 21">
    <path d="M6.8 9.4V4.2c1.1.1 2.1.5 3 1.3.2.1.4.2.6.2.5 0 .9-.4.9-1 0-.3-.1-.5-.3-.7-1.1-1-2.5-1.5-4.2-1.6V.7c0-.4-.3-.7-.7-.7-.4 0-.7.3-.7.7v1.7C2.4 2.5.3 4.3.3 6.7c0 2.9 2.6 3.8 5.1 4.4V17c-1.6-.2-2.9-.9-3.8-1.7-.2-.1-.4-.2-.6-.2-.5 0-.9.5-.9 1 0 .3.1.5.3.7 1.2 1.1 2.9 1.8 5 1.9v1.6c0 .4.3.7.8.7.4 0 .7-.3.7-.7v-1.6c3.8-.3 5.2-2.5 5.2-4.6-.1-3.1-2.7-4-5.3-4.7zM5.4 9c-1.7-.5-3-1-3-2.4s1.2-2.4 3-2.5V9zm1.4 8v-5.4c1.7.5 3.1 1.1 3.1 2.7 0 1.1-.8 2.4-3.1 2.7z"/>
</symbol><symbol id="icon-easy" viewBox="0 0 19.6 20.7">
    <path stroke-width="1.4" stroke-linecap="round" stroke-linejoin="round" stroke-miterlimit="50" stroke-dasharray="0" d="M.7 5V2.4c0-1 .8-1.7 1.7-1.7h2.5"/>
    <path stroke-width="1.4" stroke-linecap="round" stroke-linejoin="round" stroke-miterlimit="50" stroke-dasharray="0" d="M18.9 5V2.4c0-1-.8-1.7-1.7-1.7h-2.5"/>
    <path stroke-width="1.4" stroke-linecap="round" stroke-linejoin="round" stroke-miterlimit="50" stroke-dasharray="0" d="M18.9 15.7v2.6c0 1-.8 1.7-1.7 1.7h-2.5"/>
    <path stroke-width="1.4" stroke-linecap="round" stroke-linejoin="round" stroke-miterlimit="50" stroke-dasharray="0" d="M.7 15.7v2.6c0 1 .8 1.7 1.7 1.7h3.4"/>
    <path d="M4.7 5.5c0-.5.4-.8.8-.8h8.3c.5 0 .8.4.8.8v8.3c0 .5-.4.8-.8.8H5.5c-.5 0-.8-.4-.8-.8V5.5z"/>
    <path fill-opacity=".12" d="M4.7 5.5c0-.5.4-.8.8-.8h8.3c.5 0 .8.4.8.8v8.3c0 .5-.4.8-.8.8H5.5c-.5 0-.8-.4-.8-.8V5.5z"/>
    <path stroke-width="1.4" stroke-linecap="round" stroke-linejoin="round" stroke-miterlimit="50" stroke-dasharray="0" d="M4.7 5.5c0-.5.4-.8.8-.8h8.3c.5 0 .8.4.8.8v8.3c0 .5-.4.8-.8.8H5.5c-.5 0-.8-.4-.8-.8V5.5z"/>
    <path d="M4.7 4.7h10.1v5.4H4.7V4.7z"/>
    <path stroke-width="1.4" stroke-linecap="round" stroke-linejoin="round" stroke-miterlimit="50" stroke-dasharray="0" d="M4.7 4.7h10.1v5.4H4.7V4.7z"/>
</symbol><symbol id="icon-equals" viewBox="0 0 19.4 10.4">
    <path stroke-width="1.4" stroke-linecap="round" stroke-linejoin="round" stroke-miterlimit="50" stroke-dasharray="0" d="M.7.7h18"/>
    <path stroke-width="1.4" stroke-linecap="round" stroke-linejoin="round" stroke-miterlimit="50" stroke-dasharray="0" d="M.7 9.7h18"/>
</symbol><symbol id="icon-facebook" viewBox="0 0 10 19">
    <title>
        facebook
    </title>
    <path d="M9.766.157v2.946H8.014c-.64 0-1.071.134-1.295.402-.223.268-.335.67-.335 1.205v2.11h3.27l-.435 3.303H6.384v8.471H2.97v-8.47H.123V6.82H2.97V4.387c0-1.384.387-2.457 1.161-3.22C4.904.404 5.934.023 7.222.023c1.093 0 1.941.045 2.544.134z" fill-rule="evenodd"/>
</symbol><symbol id="icon-fb" viewBox="0 0 6.6 13.3">
    <path d="M4.3 13.3V7.2h1.9l.3-2.4H4.3V3.4c0-.7.2-1.1 1.1-1.1h1.2V.1C6.4.1 5.7 0 4.9 0 3.2 0 2 1.1 2 3.1v1.7H0v2.4h2v6.1h2.3"/>
</symbol><symbol id="icon-follow" viewBox="0 0 23.4 21.3">
    <path d="M8.7 11.7c0-1.7 1.3-3 3-3s3 1.3 3 3-1.3 3-3 3-3-1.3-3-3z"/>
    <path stroke-width="1.4" stroke-linecap="round" stroke-linejoin="round" stroke-miterlimit="50" stroke-dasharray="0" d="M8.7 11.7c0-1.7 1.3-3 3-3s3 1.3 3 3-1.3 3-3 3-3-1.3-3-3z"/>
    <path stroke-width="1.4" stroke-linecap="round" stroke-linejoin="round" stroke-miterlimit="50" stroke-dasharray="0" d="M16.3 2.7c2.6 1.4 4.5 4.1 4.8 7.2l-4.8-7.2zm2 15.3c-1.7 1.6-3.9 2.6-6.4 2.6-2.4 0-4.6-1-6.3-2.5l12.7-.1zM7.5 2.7C4.9 4.2 3 6.9 2.7 10l4.8-7.3z"/>
    <path d="M11.7 4.7c1.1 0 2-.9 2-2s-.9-2-2-2-2 .9-2 2 .9 2 2 2z"/>
    <path fill-opacity=".12" d="M11.7 4.7c1.1 0 2-.9 2-2s-.9-2-2-2-2 .9-2 2 .9 2 2 2z"/>
    <path stroke-width="1.4" stroke-linecap="round" stroke-linejoin="round" stroke-miterlimit="50" stroke-dasharray="0" d="M11.7 4.7c1.1 0 2-.9 2-2s-.9-2-2-2-2 .9-2 2 .9 2 2 2z"/>
    <path d="M18.7 14.7c0-1.1.9-2 2-2s2 .9 2 2-.9 2-2 2-2-.9-2-2z"/>
    <path fill-opacity=".12" d="M18.7 14.7c0-1.1.9-2 2-2s2 .9 2 2-.9 2-2 2-2-.9-2-2z"/>
    <path stroke-width="1.4" stroke-linecap="round" stroke-linejoin="round" stroke-miterlimit="50" stroke-dasharray="0" d="M18.7 14.7c0-1.1.9-2 2-2s2 .9 2 2-.9 2-2 2-2-.9-2-2z"/>
    <path d="M.7 14.7c0-1.1.9-2 2-2s2 .9 2 2-.9 2-2 2-2-.9-2-2z"/>
    <path fill-opacity=".12" d="M.7 14.7c0-1.1.9-2 2-2s2 .9 2 2-.9 2-2 2-2-.9-2-2z"/>
    <path stroke-width="1.4" stroke-linecap="round" stroke-linejoin="round" stroke-miterlimit="50" stroke-dasharray="0" d="M.7 14.7c0-1.1.9-2 2-2s2 .9 2 2-.9 2-2 2-2-.9-2-2z"/>
</symbol><symbol id="icon-google" viewBox="0 0 20 12.8">
    <path d="M17.8 9.1h-1.6V6.9H14V5.3h2.2V3h1.6v2.2H20v1.6h-2.2v2.3zM6.4 12.8c3.5 0 6.4-2.9 6.4-6.4 0-.4 0-.9-.1-1.3H6.3v2.7h3.6c-.6 1.3-1.9 2.3-3.5 2.3-2.1 0-3.7-1.7-3.7-3.8 0-2.1 1.7-3.8 3.7-3.8.9 0 1.8.3 2.4.9l1.9-1.9C9.5.6 8 0 6.4 0 2.8 0 0 2.9 0 6.4c0 3.5 2.8 6.4 6.4 6.4z"/>
</symbol><symbol id="icon-idea" viewBox="0 0 16.4 23.6">
    <path d="M.7 8.2C.7 4.1 4.1.7 8.2.7s7.5 3.4 7.5 7.5c0 2.2-1 4.2-2.5 5.6h.3c-.8.8-1.3 2-1.6 3.5 0 .2-.1.3-.1.5H4.5c0-.2-.1-.3-.1-.5-.3-1.7-.6-2.4-1.6-3.5h.3C1.7 12.4.7 10.4.7 8.2z"/>
    <path stroke-width="1.4" stroke-linecap="round" stroke-linejoin="round" stroke-miterlimit="50" stroke-dasharray="0" d="M.7 8.2C.7 4.1 4.1.7 8.2.7s7.5 3.4 7.5 7.5c0 2.2-1 4.2-2.5 5.6h.3c-.8.8-1.3 2-1.6 3.5 0 .2-.1.3-.1.5H4.5c0-.2-.1-.3-.1-.5-.3-1.7-.6-2.4-1.6-3.5h.3C1.7 12.4.7 10.4.7 8.2z"/>
    <path d="M12.4 5.7c-.6-1-1.5-1.8-2.7-2"/>
    <path stroke-width="1.4" stroke-linecap="round" stroke-linejoin="round" stroke-miterlimit="50" stroke-dasharray="0" d="M12.4 5.7c-.6-1-1.5-1.8-2.7-2"/>
    <path d="M11.1 19.7s-.1 3.2-3.2 3.2-3.2-3.2-3.2-3.2"/>
    <path fill-opacity=".12" d="M11.1 19.7s-.1 3.2-3.2 3.2-3.2-3.2-3.2-3.2"/>
    <path stroke-width="1.4" stroke-linecap="round" stroke-linejoin="round" stroke-miterlimit="50" stroke-dasharray="0" d="M11.1 19.7s-.1 3.2-3.2 3.2-3.2-3.2-3.2-3.2"/>
    <path stroke-width="1.4" stroke-linecap="round" stroke-linejoin="round" stroke-miterlimit="50" stroke-dasharray="0" d="M4.7 19.8h6.4"/>
    <path d="M7.8 17.2v-5.5"/>
    <path stroke-width="1.4" stroke-linecap="round" stroke-linejoin="round" stroke-miterlimit="50" stroke-dasharray="0" d="M7.8 17.2v-5.5"/>
    <path d="M6.7 10.7c0-.6.4-1 1-1s1 .4 1 1-.4 1-1 1-1-.4-1-1z"/>
    <path fill-opacity=".12" d="M6.7 10.7c0-.6.4-1 1-1s1 .4 1 1-.4 1-1 1-1-.4-1-1z"/>
    <path stroke-width="1.4" stroke-linecap="round" stroke-linejoin="round" stroke-miterlimit="50" stroke-dasharray="0" d="M6.7 10.7c0-.6.4-1 1-1s1 .4 1 1-.4 1-1 1-1-.4-1-1z"/>
</symbol><symbol id="icon-in" viewBox="0 0 12 12">
    <path d="M9.5 12V8.1c0-.9 0-2.1-1.3-2.1S6.7 7 6.7 8v4H4.3V4h2.4v1.1C7 4.5 7.8 3.8 9 3.8c2.5 0 3 1.7 3 3.8V12H9.5zM0 1.4C0 .6.6 0 1.4 0c.8 0 1.4.6 1.4 1.4 0 .8-.6 1.5-1.4 1.5C.6 2.9 0 2.2 0 1.4zM.2 12h2.5V4H.2v8z"/>
</symbol><symbol id="icon-inst" viewBox="0 0 23.4 23.4">
    <path d="M4.7 22.7c-2.2 0-4-1.8-4-4v-14c0-2.2 1.8-4 4-4h14c2.2 0 4 1.8 4 4v14c0 2.2-1.8 4-4 4h-14z"/>
    <path stroke-width="1.4" stroke-linecap="round" stroke-linejoin="round" stroke-miterlimit="50" stroke-dasharray="0" d="M4.7 22.7c-2.2 0-4-1.8-4-4v-14c0-2.2 1.8-4 4-4h14c2.2 0 4 1.8 4 4v14c0 2.2-1.8 4-4 4h-14z"/>
    <path d="M5.7 11.7c0-3.3 2.7-6 6-6s6 2.7 6 6-2.7 6-6 6-6-2.7-6-6z"/>
    <path fill-opacity=".12" d="M5.7 11.7c0-3.3 2.7-6 6-6s6 2.7 6 6-2.7 6-6 6-6-2.7-6-6z"/>
    <path stroke-width="1.4" stroke-linecap="round" stroke-linejoin="round" stroke-miterlimit="50" stroke-dasharray="0" d="M5.7 11.7c0-3.3 2.7-6 6-6s6 2.7 6 6-2.7 6-6 6-6-2.7-6-6z"/>
    <path stroke-width="1.4" stroke-linecap="round" stroke-linejoin="round" stroke-miterlimit="50" stroke-dasharray="0" d="M8.7 11.7c0 1.7 1.3 3 3 3s3-1.3 3-3-1.3-3-3-3"/>
    <path stroke-width="1.4" stroke-linecap="round" stroke-linejoin="round" stroke-miterlimit="50" stroke-dasharray="0" d="M4.7 4.7h1"/>
</symbol><symbol id="icon-left" viewBox="0 0 17.6 34.6">
    <path stroke-width="1.6" stroke-linecap="round" stroke-linejoin="round" stroke-miterlimit="50" stroke-dasharray="0" d="M16.8 33.8L.8 17.3 16.8.8"/>
</symbol><symbol id="icon-links" viewBox="0 0 23.1 22.5">
    <path stroke-width="1.4" stroke-linecap="round" stroke-linejoin="round" stroke-miterlimit="50" stroke-dasharray="0" d="M12.8 9.7c2.1 2.1 2.1 5.4 0 7.5l-3.1 3.1c-2.1 2.1-5.4 2.1-7.5 0-2.1-2.1-2.1-5.4 0-7.5l2.5-2.5"/>
    <path stroke-width="1.4" stroke-linecap="round" stroke-linejoin="round" stroke-miterlimit="50" stroke-dasharray="0" d="M10.3 12.8c-2.1-2.1-2.1-5.4 0-7.5l3.1-3.1c2.1-2.1 5.4-2.1 7.5 0 2.1 2.1 2.1 5.4 0 7.5l-2.5 2.5"/>
</symbol><symbol id="icon-logo" viewBox="0.3 0.1 141.4 35.4">
    <title>
        logo
    </title>
    <g>
        <path d="M.3 22.4c0-4.5 4.2-6.5 12.9-6.6h.5v-.4c0-3-1.7-4.6-4.7-4.6-2.9 0-4.6 1.6-5.5 3.4 0 0-2.4 0-2.4-1.9s2.8-4.7 8.2-4.7 8.3 2.9 8.3 7.8v12c0 .2-.7.5-1.4.5-1.4 0-2.4-.8-2.4-3.1-1.5 2.1-4 3.4-6.9 3.4-4.2-.3-6.6-2.5-6.6-5.8zm13.3-2.6v-1.5h-1.1c-5.6.2-8.4 1.3-8.4 3.9 0 1.8 1.3 2.9 3.6 2.9 3.5 0 5.9-2.3 5.9-5.3z"/>
        <path d="M41.9 17.8c0-5.9 4.1-10.4 9.8-10.4 5.5 0 9.2 4 9.2 9.8v.3c0 .8-.3 1.2-1.2 1.2H45.6c.3 3.6 2.9 6.1 6.5 6.1 3.4 0 5-1.5 6-3.2.1-.1 2.1.3 2.1 2S57.3 28 52 28c-6 0-10.1-4.1-10.1-10.2zm3.7-1.7h11.5c-.2-3.4-2.2-5.6-5.4-5.6s-5.6 2.3-6.1 5.6z"/>
        <path d="M66.6 10.9c1.3-2 3.4-3.5 6.4-3.5 5.1 0 7.4 3.5 7.4 8.4v9.9c0 1.4-.7 1.9-1.8 1.9h-.4c-1 0-1.8-.5-1.8-1.9v-9.4c0-3.3-1.6-5.3-4.4-5.3-2.5 0-4.4 1.4-5.4 3.4v11.3c0 1.4-.7 1.9-1.8 1.9h-.4c-1 0-1.8-.5-1.8-1.9V8.2c0-.1.6-.5 1.4-.5 1.3 0 2.5.6 2.6 3.2z"/>
        <path d="M82 17.7c0-6.2 3.8-10.3 9.1-10.3 3.1 0 5.4 1.4 6.6 3.2V.6c0-.1.7-.5 1.4-.5 1.2 0 2.5.6 2.5 3.5v22.2c0 1.4-.7 1.9-1.8 1.9h-.4c-1 0-1.8-.5-1.8-1.9v-1.5c-1.5 2.4-3.7 3.8-6.7 3.8-5.1-.1-8.9-4.2-8.9-10.4zM97.7 19v-4.2c-1-2.5-2.9-4-5.9-4-3.6 0-6 2.8-6 7 0 4.1 2.5 7 5.9 7 3.2-.1 6-2.5 6-5.8z"/>
        <path d="M103.1 2.9c0-1.8 1.1-2.8 2.9-2.8 1.8 0 2.8 1 2.8 2.8s-1 2.7-2.8 2.7c-1.8 0-2.9-1-2.9-2.7z"/>
        <path d="M104 25.7v-16c0-1.4.7-1.9 1.8-1.9h.4c1 0 1.8.5 1.8 1.9v16.1c0 1.4-.7 1.9-1.8 1.9h-.4c-1.1-.1-1.8-.5-1.8-2z"/>
        <path d="M109.6 10.6v-.3c0-1 .5-1.4 1.8-1.4h2.2V7.4c0-4.9 2.3-7.2 6.1-7.2 2.9 0 4.3 1.3 4.3 2.6 0 1.1-.9 1.8-1 1.8-.6-.6-1.7-1.1-2.9-1.1-1.9 0-2.8 1.2-2.8 4v1.4h3.2c1.3 0 1.8.5 1.8 1.5v.3c0 1-.5 1.5-1.8 1.5h-3.1v13.6c0 1.4-.7 1.9-1.7 1.9h-.4c-1 0-1.8-.5-1.8-1.9V12.1h-2.2c-1.3 0-1.7-.5-1.7-1.5zm18.5 23.7l3.2-7.9c-.9-.1-1.3-.3-1.7-1.1L122.7 9c-.1-.2.8-1.2 2.1-1.2 1.1 0 1.9.5 2.5 2.3l5.2 13.5 4.6-13.4c.6-1.8 1.4-2.4 2.5-2.4s2.2.9 2.1 1.1l-9 24.4c-.6 1.8-1.5 2.2-2.4 2.2-1.2-.1-2.2-1-2.2-1.2z"/>
        <path d="M29.9 11.1c0 .1-.1.1 0 0-.1.1-.1 0 0 0zm-2 .1H25v9.7c0 2.4.7 3.5 2.5 3.5 1.2 0 2.1-.6 2.7-1.3.1-.1 1.1.4 1.1 1.7 0 1.5-1.6 2.9-4.5 2.9-4 0-5.8-2.2-5.8-6.3V11.3h-1.4c-1.2 0-1.7-.5-1.7-1.5v-.3c0-1 .5-1.5 1.7-1.5H28c-.6.2-1 .8-1 1.6s.3 1.4.9 1.6zM29.6 8h.4-.2c-.1.1-.1 0-.2 0z"/>
        <path d="M29.5 8h10.7c1.2 0 1.7.4 1.7 1.4v.3c0 1-.5 1.5-1.7 1.5h-4.3v9.7c0 2.4.7 3.5 2.5 3.5 1.2 0 2.1-.6 2.7-1.3.1-.1 1.1.4 1.1 1.7 0 1.5-1.6 2.9-4.5 2.9-4 0-5.8-2.2-5.8-6.3V11.2h-2.3c.6-.3.9-.8.9-1.6.1-.8-.3-1.4-1-1.6z"/>
        <path d="M31.4 4.6c0-1.8 1.1-2.7 2.9-2.7 1.8 0 2.8 1 2.8 2.7s-1 2.7-2.8 2.7c-1.9 0-2.9-1-2.9-2.7z"/>
        <path d="M20 4.6c0-1.8 1.1-2.7 2.9-2.7 1.8 0 2.8 1 2.8 2.7s-1 2.7-2.8 2.7c-1.8 0-2.9-1-2.9-2.7z"/>
        <path d="M27.5 9.6c0-.8.5-1.2 1.3-1.2s1.2.4 1.2 1.2-.5 1.2-1.3 1.2c-.7 0-1.2-.4-1.2-1.2z"/>
    </g>
</symbol><symbol id="icon-mail" viewBox="0.7 0.9 12.7 9.9">
    <title>
        Combined Shape
    </title>
    <path stroke-width="1.33" stroke-linecap="round" stroke-linejoin="round" d="M12.813 2.45v6.6c0 .5-.4.9-1 .9h-9.5c-.5 0-1-.4-1-.9v-6.6c0-.5.4-.9 1-.9h9.5c.5 0 1 .4 1 .9zm0 0c0-.5-.4-.9-1-.9h-9.5c-.5 0-1 .4-1 .9l5.7 4 5.8-4z"/>
</symbol><symbol id="icon-next" viewBox="0 0 17.6 14.6">
    <path stroke-width="1.6" stroke-linecap="round" stroke-linejoin="round" stroke-miterlimit="50" stroke-dasharray="0" d="M9.8 13.8l7-6.5-7-6.5"/>
    <path stroke-width="1.6" stroke-linecap="round" stroke-linejoin="round" stroke-miterlimit="50" stroke-dasharray="0" d="M.8 7.8h15.5"/>
    <path stroke-width="1.6" stroke-linecap="round" stroke-linejoin="round" stroke-miterlimit="50" stroke-dasharray="0" d="M9.8 13.8l7-6.5-7-6.5"/>
    <path stroke-width="1.6" stroke-linecap="round" stroke-linejoin="round" stroke-miterlimit="50" stroke-dasharray="0" d="M.8 7.8h15.5"/>
</symbol><symbol id="icon-people" viewBox="0 0 23.5 21.8">
    <path d="M12 17.2l10.8.2v-2.2c0-.2-.1-.5-.2-.8-.1-.3-.2-.6-.4-.8-.2-.2-.5-.4-1-.6-.5-.2-1.1-.5-1.8-.7-.7-.2-1.1-.4-1.5-.6-.4-.2-.7-.5-.9-.9-.2-.4-.3-.8-.3-1.2 0-.3.2-.6.5-1 .2-.2.4-.5.5-1 .5-.2.7-.6.7-1.2 0-.4-.1-.8-.2-1 0-.3.1-.7.1-1.3 0-.4 0-.9-.2-1.3s-.4-.8-.8-1.1c-.3-.3-.7-.6-1.1-.8-.4-.2-.9-.3-1.3-.3s-.9.1-1.3.3c-.4.2-.8.5-1.1.8-.3.3-.6.7-.8 1.1"/>
    <path fill-opacity=".12" d="M12 17.2l10.8.2v-2.2c0-.2-.1-.5-.2-.8-.1-.3-.2-.6-.4-.8-.2-.2-.5-.4-1-.6-.5-.2-1.1-.5-1.8-.7-.7-.2-1.1-.4-1.5-.6-.4-.2-.7-.5-.9-.9-.2-.4-.3-.8-.3-1.2 0-.3.2-.6.5-1 .2-.2.4-.5.5-1 .5-.2.7-.6.7-1.2 0-.4-.1-.8-.2-1 0-.3.1-.7.1-1.3 0-.4 0-.9-.2-1.3s-.4-.8-.8-1.1c-.3-.3-.7-.6-1.1-.8-.4-.2-.9-.3-1.3-.3s-.9.1-1.3.3c-.4.2-.8.5-1.1.8-.3.3-.6.7-.8 1.1"/>
    <path stroke-width="1.4" stroke-linecap="round" stroke-linejoin="round" stroke-miterlimit="50" stroke-dasharray="0" d="M12 17.2l10.8.2v-2.2c0-.2-.1-.5-.2-.8-.1-.3-.2-.6-.4-.8-.2-.2-.5-.4-1-.6-.5-.2-1.1-.5-1.8-.7-.7-.2-1.1-.4-1.5-.6-.4-.2-.7-.5-.9-.9-.2-.4-.3-.8-.3-1.2 0-.3.2-.6.5-1 .2-.2.4-.5.5-1 .5-.2.7-.6.7-1.2 0-.4-.1-.8-.2-1 0-.3.1-.7.1-1.3 0-.4 0-.9-.2-1.3s-.4-.8-.8-1.1c-.3-.3-.7-.6-1.1-.8-.4-.2-.9-.3-1.3-.3s-.9.1-1.3.3c-.4.2-.8.5-1.1.8-.3.3-.6.7-.8 1.1"/>
    <path d="M19.2 19.7c0-.3-.1-.6-.2-.9-.1-.4-.3-.7-.5-.9-.2-.2-.6-.4-1.2-.7-.6-.3-1.3-.5-2.1-.8-.8-.3-1.3-.5-1.7-.7-.5-.2-.8-.6-1.1-1-.3-.5-.4-.9-.4-1.4 0-.3.2-.7.6-1.2.2-.3.4-.6.6-1.1.5-.2.8-.7.8-1.4 0-.5-.1-.9-.3-1.1 0-.3.1-.8.2-1.5 0-.5 0-1-.3-1.5-.2-.5-.5-1-.9-1.3s-.7-.9-1.2-1.1-1-.4-1.6-.4c-.5 0-1 .1-1.6.4s-.9.5-1.2.9c-.4.4-.7.8-.9 1.3-.2.5-.3 1.1-.3 1.6.1.7.1 1.2.2 1.5-.2.2-.3.6-.3 1.1 0 .7.3 1.2.8 1.4.2.5.4.9.6 1.1.4.4.6.8.6 1.2 0 .5-.1 1-.4 1.4-.3.4-.6.8-1 1-.4.2-.9.4-1.7.7s-1.5.7-2.1.9c-.6.3-1 .5-1.2.7-.2.2-.4.5-.5.9-.1.4-.2.7-.2.9v1.4h18.5v-1.4z"/>
    <path stroke-width="1.4" stroke-linecap="round" stroke-linejoin="round" stroke-miterlimit="50" stroke-dasharray="0" d="M19.2 19.7c0-.3-.1-.6-.2-.9-.1-.4-.3-.7-.5-.9-.2-.2-.6-.4-1.2-.7-.6-.3-1.3-.5-2.1-.8-.8-.3-1.3-.5-1.7-.7-.5-.2-.8-.6-1.1-1-.3-.5-.4-.9-.4-1.4 0-.3.2-.7.6-1.2.2-.3.4-.6.6-1.1.5-.2.8-.7.8-1.4 0-.5-.1-.9-.3-1.1 0-.3.1-.8.2-1.5 0-.5 0-1-.3-1.5-.2-.5-.5-1-.9-1.3s-.7-.9-1.2-1.1-1-.4-1.6-.4c-.5 0-1 .1-1.6.4s-.9.5-1.2.9c-.4.4-.7.8-.9 1.3-.2.5-.3 1.1-.3 1.6.1.7.1 1.2.2 1.5-.2.2-.3.6-.3 1.1 0 .7.3 1.2.8 1.4.2.5.4.9.6 1.1.4.4.6.8.6 1.2 0 .5-.1 1-.4 1.4-.3.4-.6.8-1 1-.4.2-.9.4-1.7.7s-1.5.7-2.1.9c-.6.3-1 .5-1.2.7-.2.2-.4.5-.5.9-.1.4-.2.7-.2.9v1.4h18.5v-1.4z"/>
    <path stroke-width="1.4" stroke-linecap="round" stroke-linejoin="round" stroke-miterlimit="50" stroke-dasharray="0" d="M7.7 13.7c.5.7 1.3 1.2 2.2 1.2.8 0 1.6-.4 2-1"/>
</symbol><symbol id="icon-phone" viewBox="0 0 11.8 12.7">
    <path stroke-width="1.33" stroke-linecap="round" stroke-linejoin="round" stroke-miterlimit="50" stroke-dasharray="0" d="M9.3 12.1c-2.2 0-4.5-1.2-6.3-3.3C.5 5.8.6 3.1.7 2.1.9 1.1 2 .7 2.7.7c.3 0 .6.1.7.2.7.8 1.4 2.5 1.4 2.5.2.6.1 1-.3 1.3-.2.2-.6.6-.8.7 0 .3.2.8.7 1.5.7 1 1.7 1.7 2.1 1.8l.8-.7c.2-.2.4-.3.7-.3.2 0 .4.1.6.2.1 0 1.6 1 2.3 1.8.2.3.1.8-.1 1.2-.3.7-.8 1.2-1.5 1.2z"/>
</symbol><symbol id="icon-play" viewBox="0 0 10.6 12.7">
    <title>
        Stroke 3706
    </title>
    <path d="M0 1.8C0 .1 1.1-.5 2.5.4l7 4.4c1.5.9 1.5 2.3.1 3.2l-7 4.4c-1.5.8-2.6.2-2.6-1.5V1.8z"/>
</symbol><symbol id="icon-post" viewBox="0 0 22.3 22.2">
    <path stroke-width="2.03" stroke-linecap="round" stroke-linejoin="round" d="M11.2 21.2c5.6 0 10.1-4.5 10.1-10.1S16.8 1 11.2 1 1 5.5 1 11.1s4.6 10.1 10.2 10.1z"/>
    <path stroke-width="1.421" stroke-linecap="round" stroke-linejoin="round" d="M4.6 16.2L7.3 13l3.2 1.9 3.9-3.8 3.9 3.8"/>
    <path stroke-width="1.421" stroke-linecap="round" stroke-linejoin="round" d="M7.1 8.1c0-1.1.9-2 2-2s2 .9 2 2-.9 2-2 2-2-.9-2-2z"/>
</symbol><symbol id="icon-prev" viewBox="0 0 17.6 14.6">
    <path stroke-width="1.6" stroke-linecap="round" stroke-linejoin="round" stroke-miterlimit="50" stroke-dasharray="0" d="M7.8.8l-7 6.5 7 6.5"/>
    <path stroke-width="1.6" stroke-linecap="round" stroke-linejoin="round" stroke-miterlimit="50" stroke-dasharray="0" d="M16.8 6.8H1.3"/>
    <path stroke-width="1.6" stroke-linecap="round" stroke-linejoin="round" stroke-miterlimit="50" stroke-dasharray="0" d="M7.8.8l-7 6.5 7 6.5"/>
    <path stroke-width="1.6" stroke-linecap="round" stroke-linejoin="round" stroke-miterlimit="50" stroke-dasharray="0" d="M16.8 6.8H1.3"/>
</symbol><symbol id="icon-quotes" viewBox="0 0 30.7 22.1">
    <path d="M11.5 20.1c-1.3 1.3-2.9 2-4.8 2-1.8 0-3.4-.6-4.7-1.9s-2-3-2-5c0-1.9.7-3.8 2-5.7L8.1 0h6.4l-4.1 9.4c2 1.3 3 3.2 3 5.7 0 2-.7 3.7-1.9 5zm5.8-13.2c0 2.5 1 4.4 3 5.7L16.2 22h6.4l6.1-9.4c1.3-1.9 2-3.8 2-5.7 0-2.1-.7-3.8-2-5S25.9 0 24.1 0c-2 0-3.5.7-4.8 2-1.3 1.3-2 2.9-2 4.9z"/>
</symbol><symbol id="icon-right" viewBox="0 0 17.6 34.6">
    <path stroke-width="1.6" stroke-linecap="round" stroke-linejoin="round" stroke-miterlimit="50" stroke-dasharray="0" d="M.8 33.8l16-16.5L.8.8"/>
</symbol><symbol id="icon-soc-button" viewBox="0 0 15.4 15.3">
    <path stroke-width="1.218" stroke-linecap="round" stroke-linejoin="round" stroke-miterlimit="50" stroke-dasharray="0" d="M14.7.6L7.6 7.7"/>
    <path stroke-width="1.218" stroke-linecap="round" stroke-linejoin="round" stroke-miterlimit="50" stroke-dasharray="0" d="M14.8 8.7v4c0 1.1-.9 2-2 2H2.6c-1.1 0-2-.9-2-2V2.6c0-1.1.9-2 2-2h4.1"/>
    <path stroke-width="1.218" stroke-linecap="round" stroke-linejoin="round" stroke-miterlimit="50" stroke-dasharray="0" d="M10.6.6h4v4"/>
</symbol><symbol id="icon-star-transp" viewBox="0 0 23.4 22.4">
    <path stroke-width="1.4" stroke-linecap="round" stroke-linejoin="round" stroke-miterlimit="50" stroke-dasharray="0" d="M15.2 6.6c.1.3.4.5.7.5l6 .9c.8.1 1.1 1 .5 1.6l-4.3 4.2c-.2.2-.3.5-.3.8l1 6c.1.7-.7 1.3-1.4 1L12 18.8c-.3-.1-.6-.1-.9 0l-5.4 2.8c-.7.4-1.5-.2-1.4-1l1-6c0-.3-.1-.6-.3-.8L1 9.6C.4 9.1.7 8.1 1.5 8l6-.9c.3 0 .5-.2.7-.5l2.7-5.4c.3-.7 1.3-.7 1.6 0l2.7 5.4z"/>
</symbol><symbol id="icon-star" viewBox="0 0 13.6 13.3">
    <path d="M9 3.8c.1.2.3.3.4.3l3.7.6c.5.1.6.6.3 1l-2.7 2.7c-.1.1-.2.3-.2.5l.6 3.8c.1.5-.4.8-.8.6L7 11.5c-.2-.1-.4-.1-.5 0l-3.3 1.8c-.4.2-.9-.1-.8-.6L3 8.8c0-.2 0-.4-.2-.5L.2 5.6c-.3-.3-.1-.9.3-1L4.2 4c.2 0 .3-.1.4-.3L6.3.3c.2-.4.8-.4 1 0L9 3.8z"/>
</symbol><symbol id="icon-sync-cloud" viewBox="0 0 106 72">
    <filter height="200%" id="b" width="200%" x="-50%" y="-50%">
        <feGaussianBlur in="SourceGraphic" result="SvgjsFeGaussianBlur1012Out" stdDeviation="2"/>
    </filter>
    <filter height="200%" id="a" width="200%" x="-50%" y="-50%">
        <feGaussianBlur in="SourceGraphic" result="SvgjsFeGaussianBlur1009Out" stdDeviation="12"/>
    </filter>
    <path opacity=".12" enable-background="new" d="M0 50c0-9.7 6.3-18 15.1-20.9C16 21.7 22.3 16 30 16c2.3 0 4.6.5 6.5 1.5C41.9 9.9 50.6 5 60.5 5 76.2 5 89.1 17.5 90 33.3c9.1 1.6 16 9.6 16 19.2 0 8.3-5.1 15.3-12.4 18.2V72H14.7v-1.2C6.1 67.8 0 59.6 0 50z" filter="url(#a)"/>
    <path opacity=".13" enable-background="new" d="M0 46c0-9.7 6.3-18 15.1-20.9C16 17.7 22.3 12 30 12c2.3 0 4.6.5 6.5 1.5C41.9 5.9 50.6 1 60.5 1 76.2 1 89.1 13.5 90 29.3c9.1 1.6 16 9.6 16 19.2 0 8.3-5.1 15.3-12.4 18.2V68H14.7v-1.2C6.1 63.8 0 55.6 0 46z" filter="url(#b)"/>
    <path d="M0 45c0-9.7 6.3-18 15.1-20.9C16 16.7 22.3 11 30 11c2.3 0 4.6.5 6.5 1.5C41.9 4.9 50.6 0 60.5 0 76.2 0 89.1 12.5 90 28.3c9.1 1.6 16 9.6 16 19.2 0 8.3-5.1 15.3-12.4 18.2V67H14.7v-1.2C6.1 62.8 0 54.6 0 45z"/>
    <g>
        <path d="M48.3 49.4c-2.3.1-4.7-.4-6.6-1.5-5.2-3.2-6.8-9.9-3.7-15.1s9.9-6.9 15-3.8c3.3 2 5.3 5.5 5.2 9.4l-4.4-3.5c-.3-.2-.7-.2-1 .1-.2.3-.2.7.1 1l5.5 4.4c.1.1.3.2.4.2.2 0 .4-.1.5-.3l4.4-5.4c.2-.3.2-.7-.1-1-.3-.2-.7-.2-1 .1l-3 3.8c-.2-4.1-2.4-7.8-5.9-9.9-5.8-3.6-13.4-1.7-16.9 4.2s-1.7 13.5 4.2 17c1.9 1.1 4.3 1.8 6.6 1.8h.8c.4 0 .7-.4.7-.7s-.4-.8-.8-.8z"/>
        <path d="M66.8 28.4c-.4-.3-.7-.5-1.1-.8-.3-.1-.5-.2-.7-.3-.6-.3-1.2-.5-1.8-.7-1.6-.5-3.3-.7-4.9-.6-.4 0-.7.4-.7.7 0 .4.4.7.7.7 1.4-.1 3 .1 4.4.6.6.2 1.1.4 1.6.6l.6.3c.4.2.7.4 1 .7 4.4 3.4 5.6 9.6 2.7 14.4-3.1 5.2-9.9 6.9-15 3.8-3.3-2-5.3-5.5-5.2-9.4l4.4 3.5c.3.2.7.2 1-.1.2-.3.2-.7-.1-1l-5.5-4.4c-.3-.2-.7-.2-1 .1l-4.4 5.4c-.2.3-.2.7.1 1 .1.1.3.2.4.2.2 0 .4-.1.5-.3l3-3.8c.2 4.1 2.4 7.8 5.9 9.9 2 1.2 4.1 1.7 6.3 1.7 4.2 0 8.3-2.2 10.7-6 3.4-5.4 2.1-12.3-2.9-16.2z"/>
    </g>
</symbol><symbol id="icon-talks" viewBox="0 0 23.6 22.4">
    <path d="M7.7 16.3c1.3 2 4 3.4 7.2 3.4.6 0 1.2-.1 1.7-.1l4.3 2.1v-4c1.2-1.1 2-2.4 2-4s-.8-3-2.1-4"/>
    <path fill-opacity=".12" d="M7.7 16.3c1.3 2 4 3.4 7.2 3.4.6 0 1.2-.1 1.7-.1l4.3 2.1v-4c1.2-1.1 2-2.4 2-4s-.8-3-2.1-4"/>
    <path stroke-width="1.4" stroke-linecap="round" stroke-linejoin="round" stroke-miterlimit="50" stroke-dasharray="0" d="M7.7 16.3c1.3 2 4 3.4 7.2 3.4.6 0 1.2-.1 1.7-.1l4.3 2.1v-4c1.2-1.1 2-2.4 2-4s-.8-3-2.1-4"/>
    <path d="M.7 8.7c0 1.8.8 3.4 2 4.8v5.2l4.8-2.4c1 .3 2.1.4 3.2.4 5.5 0 10-3.6 10-8s-4.5-8-10-8-10 3.6-10 8z"/>
    <path stroke-width="1.4" stroke-linecap="round" stroke-linejoin="round" stroke-miterlimit="50" stroke-dasharray="0" d="M.7 8.7c0 1.8.8 3.4 2 4.8v5.2l4.8-2.4c1 .3 2.1.4 3.2.4 5.5 0 10-3.6 10-8s-4.5-8-10-8-10 3.6-10 8z"/>
    <path stroke-width="1.4" stroke-linecap="round" stroke-linejoin="round" stroke-miterlimit="50" stroke-dasharray="0" d="M6.7 7.7h8"/>
    <path stroke-width="1.4" stroke-linecap="round" stroke-linejoin="round" stroke-miterlimit="50" stroke-dasharray="0" d="M6.7 10.7h5"/>
</symbol><symbol id="icon-tel" viewBox="0 0 21.4 23.4">
    <path d="M3.7.7l3.8 8 1.4-1.3-.2-3.2L6.6.9 3.7.7z"/>
    <path fill-opacity=".12" d="M3.7.7l3.8 8 1.4-1.3-.2-3.2L6.6.9 3.7.7z"/>
    <path d="M12.7 15.5l6.8 5.3.7-1.4-.5-1.6-2.5-1.9-2.2-1.2-2.3.8z"/>
    <path fill-opacity=".12" d="M12.7 15.5l6.8 5.3.7-1.4-.5-1.6-2.5-1.9-2.2-1.2-2.3.8z"/>
    <path stroke-width="1.4" stroke-linecap="round" stroke-linejoin="round" stroke-miterlimit="50" stroke-dasharray="0" d="M17.2 22.7c-4.2 0-8.7-2.4-12.1-6.4C.3 10.7.5 5.4.8 3.4 1.1 1.4 3.3.7 4.6.7c.6 0 1.1.1 1.3.4C7.2 2.7 8.5 5.9 8.6 6c.4 1.1.2 2-.5 2.6-.5.4-1.2 1-1.5 1.3 0 .5.3 1.5 1.3 2.8 1.4 2 3.2 3.3 4 3.4l1.6-1.3c.4-.3.8-.5 1.3-.5.4 0 .8.1 1.2.3.1.1 3.1 1.9 4.4 3.5.5.5.2 1.6-.2 2.4-.6 1.4-1.7 2.2-3 2.2z"/>
    <path stroke-width="1.4" stroke-linecap="round" stroke-linejoin="round" stroke-miterlimit="50" stroke-dasharray="0" d="M12.7 15.7l6.9 5.1"/>
    <path stroke-width="1.4" stroke-linecap="round" stroke-linejoin="round" stroke-miterlimit="50" stroke-dasharray="0" d="M3.2 1.2l4 8"/>
</symbol><symbol id="icon-twitter" viewBox="0 0 16.6 13">
    <path d="M14.7 2c.7-.4 1.2-1 1.5-1.8-.7.4-1.4.7-2.2.8-.6-.6-1.5-1-2.5-1-1.9 0-3.4 1.5-3.4 3.3 0 .3 0 .5.1.7-2.8-.1-5.3-1.4-7-3.4-.3.5-.5 1-.5 1.6 0 1.1.6 2.1 1.5 2.7-.5.1-1.1-.1-1.5-.3 0 1.6 1.2 2.9 2.7 3.2-.3.1-.6.1-.9.1-.2 0-.4 0-.7-.1.4 1.3 1.7 2.3 3.2 2.3-1.2.9-2.6 1.4-4.2 1.4H0c1.5.9 3.3 1.5 5.2 1.5 6.3 0 9.7-5 9.7-9.3v-.4c.7-.5 1.3-1 1.7-1.7-.6.2-1.2.4-1.9.4z"/>
</symbol></svg>