<?xml version="1.0" encoding="utf-8"?>
<!-- Generator: Adobe Illustrator 18.0.0, SVG Export Plug-In . SVG Version: 6.00 Build 0)  -->
<!DOCTYPE svg PUBLIC "-//W3C//DTD SVG 1.1//EN" "http://www.w3.org/Graphics/SVG/1.1/DTD/svg11.dtd">
<svg version="1.1" id="Слой_1" xmlns="http://www.w3.org/2000/svg" xmlns:xlink="http://www.w3.org/1999/xlink" x="0px" y="0px"
	 viewBox="0.3 0.3 23.4 23.4" enable-background="new 0.3 0.3 23.4 23.4" xml:space="preserve">
<title>icon</title>
<desc>Created with Sketch.</desc>
<g id="Main">
	<g id="Attendify-Main-Page" transform="translate(-346.000000, -2418.000000)">
		<g id="build-manage-measure" transform="translate(-50.000000, 2258.000000)">
			<g id="sub-menu" transform="translate(365.000000, 140.000000)">
				<g id="_x31_">
					<g id="icon" transform="translate(11.000000, 0.000000)">
						<g transform="translate(21.000000, 21.000000)">
							<g id="Stroke-526">
								<g>
									<path id="path-1" fill="#FFFFFF" d="M7,7V2c0-1.1,0.9-2,2-2h11c1.1,0,2,0.9,2,2v11c0,1.1-0.9,2-2,2h-5"/>
								</g>
								<g>
									
										<path id="path-1_1_" fill="#338DE9" fill-opacity="0.12" stroke="#338DE9" stroke-width="1.4" stroke-linecap="round" stroke-linejoin="round" d="
										M7,7V2c0-1.1,0.9-2,2-2h11c1.1,0,2,0.9,2,2v11c0,1.1-0.9,2-2,2h-5"/>
								</g>
							</g>
							<rect id="Rectangle" y="7" fill="#FFFFFF" width="15" height="15"/>
							
								<polyline id="Stroke-527" fill="none" stroke="#338DE9" stroke-width="1.4" stroke-linecap="round" stroke-linejoin="round" points="
								13,22 15,22 15,20 							"/>
							
								<polyline id="Stroke-528" fill="none" stroke="#338DE9" stroke-width="1.4" stroke-linecap="round" stroke-linejoin="round" points="
								0,20 0,22 2,22 							"/>
							
								<polyline id="Stroke-529" fill="none" stroke="#338DE9" stroke-width="1.4" stroke-linecap="round" stroke-linejoin="round" points="
								2,7 0,7 0,9 							"/>
							<path id="Stroke-530" fill="none" stroke="#338DE9" stroke-width="1.4" stroke-linecap="round" stroke-linejoin="round" d="
								M9,22H6"/>
							
								<polyline id="Stroke-531" fill="none" stroke="#338DE9" stroke-width="1.4" stroke-linecap="round" stroke-linejoin="round" points="
								13,7 15,7 15,9 							"/>
							<path id="Stroke-532" fill="none" stroke="#338DE9" stroke-width="1.4" stroke-linecap="round" stroke-linejoin="round" d="
								M9,7H6"/>
							<path id="Stroke-533" fill="none" stroke="#338DE9" stroke-width="1.4" stroke-linecap="round" stroke-linejoin="round" d="
								M0,16v-3"/>
							<path id="Stroke-534" fill="none" stroke="#338DE9" stroke-width="1.4" stroke-linecap="round" stroke-linejoin="round" d="
								M15,16v-3"/>
						</g>
					</g>
				</g>
			</g>
		</g>
	</g>
</g>
</svg>
