<?xml version="1.0" encoding="utf-8"?>
<!-- Generator: Adobe Illustrator 19.2.1, SVG Export Plug-In . SVG Version: 6.00 Build 0)  -->
<svg version="1.1" id="SvgjsSvg1000" xmlns:svgjs="http://svgjs.com/svgjs"
	 xmlns="http://www.w3.org/2000/svg" xmlns:xlink="http://www.w3.org/1999/xlink" x="0px" y="0px" viewBox="0 0 106 72"
	 enable-background="new 0 0 106 72" xml:space="preserve">
<filter  height="200%" id="SvgjsFilter1011" width="200%" x="-50%" y="-50%">
	<feGaussianBlur  id="SvgjsFeGaussianBlur1012" in="SourceGraphic" result="SvgjsFeGaussianBlur1012Out" stdDeviation="2 ">
		</feGaussianBlur>
</filter>
<filter  height="200%" id="SvgjsFilter1008" width="200%" x="-50%" y="-50%">
	<feGaussianBlur  id="SvgjsFeGaussianBlur1009" in="SourceGraphic" result="SvgjsFeGaussianBlur1009Out" stdDeviation="12 ">
		</feGaussianBlur>
</filter>
<g id="SvgjsPath1007" filter="url(#SvgjsFilter1008)">
	<path opacity="0.12" fill="#2A5780" enable-background="new    " d="M0,50c0-9.7,6.3-18,15.1-20.9C16,21.7,22.3,16,30,16
		c2.3,0,4.6,0.5,6.5,1.5C41.9,9.9,50.6,5,60.5,5C76.2,5,89.1,17.5,90,33.3c9.1,1.6,16,9.6,16,19.2c0,8.3-5.1,15.3-12.4,18.2V72H14.7
		v-1.2C6.1,67.8,0,59.6,0,50z"/>
</g>
<g id="SvgjsPath1010" filter="url(#SvgjsFilter1011)">
	<path opacity="0.13" fill="#2A5780" enable-background="new    " d="M0,46c0-9.7,6.3-18,15.1-20.9C16,17.7,22.3,12,30,12
		c2.3,0,4.6,0.5,6.5,1.5C41.9,5.9,50.6,1,60.5,1C76.2,1,89.1,13.5,90,29.3c9.1,1.6,16,9.6,16,19.2c0,8.3-5.1,15.3-12.4,18.2V68H14.7
		v-1.2C6.1,63.8,0,55.6,0,46z"/>
</g>
<path id="SvgjsPath1013" fill="#4799EC" d="M0,45c0-9.7,6.3-18,15.1-20.9C16,16.7,22.3,11,30,11c2.3,0,4.6,0.5,6.5,1.5
	C41.9,4.9,50.6,0,60.5,0C76.2,0,89.1,12.5,90,28.3c9.1,1.6,16,9.6,16,19.2c0,8.3-5.1,15.3-12.4,18.2V67H14.7v-1.2
	C6.1,62.8,0,54.6,0,45z"/>
<g>
	<path fill="#FFFFFF" d="M48.3,49.4c-2.3,0.1-4.7-0.4-6.6-1.5c-5.2-3.2-6.8-9.9-3.7-15.1s9.9-6.9,15-3.8c3.3,2,5.3,5.5,5.2,9.4
		l-4.4-3.5c-0.3-0.2-0.7-0.2-1,0.1c-0.2,0.3-0.2,0.7,0.1,1l5.5,4.4c0.1,0.1,0.3,0.2,0.4,0.2c0.2,0,0.4-0.1,0.5-0.3l4.4-5.4
		c0.2-0.3,0.2-0.7-0.1-1c-0.3-0.2-0.7-0.2-1,0.1l-3,3.8c-0.2-4.1-2.4-7.8-5.9-9.9c-5.8-3.6-13.4-1.7-16.9,4.2s-1.7,13.5,4.2,17
		c1.9,1.1,4.3,1.8,6.6,1.8c0.3,0,0.5,0,0.8,0c0.4,0,0.7-0.4,0.7-0.7S48.7,49.4,48.3,49.4z"/>
	<path fill="#FFFFFF" d="M66.8,28.4c-0.4-0.3-0.7-0.5-1.1-0.8c-0.3-0.1-0.5-0.2-0.7-0.3c-0.6-0.3-1.2-0.5-1.8-0.7
		c-1.6-0.5-3.3-0.7-4.9-0.6c-0.4,0-0.7,0.4-0.7,0.7c0,0.4,0.4,0.7,0.7,0.7c1.4-0.1,3,0.1,4.4,0.6c0.6,0.2,1.1,0.4,1.6,0.6
		c0.2,0.1,0.4,0.2,0.6,0.3c0.4,0.2,0.7,0.4,1,0.7c4.4,3.4,5.6,9.6,2.7,14.4c-3.1,5.2-9.9,6.9-15,3.8c-3.3-2-5.3-5.5-5.2-9.4l4.4,3.5
		c0.3,0.2,0.7,0.2,1-0.1c0.2-0.3,0.2-0.7-0.1-1l-5.5-4.4c-0.3-0.2-0.7-0.2-1,0.1l-4.4,5.4c-0.2,0.3-0.2,0.7,0.1,1
		c0.1,0.1,0.3,0.2,0.4,0.2c0.2,0,0.4-0.1,0.5-0.3l3-3.8c0.2,4.1,2.4,7.8,5.9,9.9c2,1.2,4.1,1.7,6.3,1.7c4.2,0,8.3-2.2,10.7-6
		C73.1,39.2,71.8,32.3,66.8,28.4z"/>
</g>
</svg>
